<mxfile host="app.diagrams.net" modified="2022-04-07T07:09:49.611Z" agent="5.0 (Macintosh)" etag="Icdd2Kr4BDDAcxDqcw-8" version="17.4.0" type="github" pages="4">
  <diagram id="6nDgoP4D8HTc7e2tT5lt" name="Page-1">
    <mxGraphModel dx="1235" dy="621" grid="0" gridSize="10" guides="1" tooltips="1" connect="1" arrows="1" fold="1" page="1" pageScale="1" pageWidth="850" pageHeight="1100" background="#FFFFFF" math="0" shadow="0">
      <root>
        <mxCell id="0" />
        <mxCell id="1" parent="0" />
        <mxCell id="SLHuEtTYFkW_0ceZfKXF-1" value="" style="verticalLabelPosition=bottom;html=1;verticalAlign=top;align=center;strokeColor=none;fillColor=#00BEF2;shape=mxgraph.azure.git_repository;" parent="1" vertex="1">
          <mxGeometry x="43.5" y="274.5" width="99" height="88" as="geometry" />
        </mxCell>
        <mxCell id="SLHuEtTYFkW_0ceZfKXF-5" value="" style="editableCssRules=.*;shape=image;verticalLabelPosition=bottom;labelBackgroundColor=#ffffff;verticalAlign=top;aspect=fixed;imageAspect=0;image=data:image/svg+xml,PHN2ZyB4bWxucz0iaHR0cDovL3d3dy53My5vcmcvMjAwMC9zdmciIHhtbG5zOnhsaW5rPSJodHRwOi8vd3d3LnczLm9yZy8xOTk5L3hsaW5rIiB4bWxuczp2PSJodHRwczovL3ZlY3RhLmlvL25hbm8iIHdpZHRoPSI3MTguNjM1MDcwODAwNzgxMiIgaGVpZ2h0PSIxMDYuNjUwMDAxNTI1ODc4OSIgdmlld0JveD0iMTAgMTAgNzE4LjYzNTA3MDgwMDc4MTIgMTA2LjY1MDAwMTUyNTg3ODkiPiYjeGE7CTxzdHlsZSB0eXBlPSJ0ZXh0L2NzcyI+JiN4YTsJLnN0MHtmaWxsOiMzMjZkZTU7fSYjeGE7CTwvc3R5bGU+JiN4YTsJPGcgY2xhc3M9InN0MCIgZmlsbD0iIzMyNmRlNSI+JiN4YTsJCTxwYXRoIGQ9Ik0zMC4xMTUgNjkuNGw2LjA3NS02Ljc1IDYuMjEtNi44ODUgNS41MzUtNi42MTUgNC41OS01LjRINzYuNDJMNjIuMzggNTkuNTQ1Yy00LjUgNC45NS05LjQ1IDEwLjA4LTE0Ljg1IDE1LjM5IDIuNyAyLjQzIDUuNDkgNS4zNTUgOC4zNyA4Ljc3NWExOTEuODYgMTkxLjg2IDAgMCAxIDguMzcgMTAuMzk1YzIuNyAzLjYgNS4xNzUgNy4yIDcuNDI1IDEwLjhzNC4xNCA2Ljg4NSA1LjY3IDkuODU1SDU0LjI4Yy0xLjQ0LTIuMzQtMy4xMDUtNC45MDUtNC45OTUtNy42OTUtMS44LTIuODgtMy43MzUtNS43MTUtNS44MDUtOC41MDVhOTguMDcgOTguMDcgMCAwIDAtNi42MTUtOC4yMzVjLTIuMjUtMi42MS00LjUtNC44MTUtNi43NS02LjYxNXYzMS4wNUgxMFYxMy4yNEwzMC4xMTUgMTB2NTkuNG0xMTcuMjI5IDQyLjkzYy0zLjQyLjk5LTcuODMgMS44OS0xMy4yMyAyLjctNS40LjktMTEuMDcgMS4zNS0xNy4wMSAxLjM1LTYuMDMgMC0xMS4wNy0uODEtMTUuMTItMi40My0zLjk2LTEuNjItNy4xMS0zLjg3LTkuNDUtNi43NS0yLjM0LTIuOTctNC4wMDUtNi40OC00Ljk5NS0xMC41M3MtMS40ODUtOC41MDUtMS40ODUtMTMuMzY1VjQzLjc1aDIwLjExNXYzNy4xMjVjMCA2LjQ4Ljg1NSAxMS4xNiAyLjU2NSAxNC4wNHM0LjkwNSA0LjMyIDkuNTg1IDQuMzJhODIuOTUgODIuOTUgMCAwIDAgNC41OS0uMTM1bDQuMzItLjU0VjQzLjc1aDIwLjExNXY2OC41OG02NC41MDktMzMuNjE1YzAtMTIuOTYtNC43Ny0xOS40NC0xNC4zMS0xOS40NC0yLjA3IDAtNC4xNC4yNy02LjIxLjgxLTEuOTguNTQtMy42IDEuMjE1LTQuODYgMi4wMjV2MzYuNTg1Yy45OS4xOCAyLjI1LjM2IDMuNzguNTRhODUuNDQgODUuNDQgMCAwIDAgNC45OTUuMTM1YzUuNDkgMCA5LjYzLTEuODkgMTIuNDItNS42N3M0LjE4NS04Ljc3NSA0LjE4NS0xNC45ODVtMjAuNTIuNTRjMCA1LjY3LS44NTUgMTAuOC0yLjU2NSAxNS4zOS0xLjYyIDQuNTktNC4wMDUgOC41MDUtNy4xNTUgMTEuNzQ1cy03LjAyIDUuNzYtMTEuNjEgNy41NmMtNC41OSAxLjcxLTkuODEgMi41NjUtMTUuNjYgMi41NjUtMi40MyAwLTQuOTk1LS4xMzUtNy42OTUtLjQwNWExMTUuMzkgMTE1LjM5IDAgMCAxLTcuODMtLjgxYy0yLjUyLS4zNi00Ljk1LS43NjUtNy4yOS0xLjIxNS0yLjM0LS41NC00LjQxLTEuMDgtNi4yMS0xLjYyVjEzLjI0TDE4Ni40NzMgMTB2MzUuMzdjMi4yNS0uOTkgNC41OS0xLjc1NSA3LjAyLTIuMjk1czUuMDQtLjgxIDcuODMtLjgxYzUuMDQgMCA5LjQ5NS45IDEzLjM2NSAyLjcgMy44NyAxLjcxIDcuMTEgNC4xODUgOS43MiA3LjQyNXM0LjU5IDcuMTU1IDUuOTQgMTEuNzQ1YzEuMzUgNC41IDIuMDI1IDkuNTQgMi4wMjUgMTUuMTIiLz4mI3hhOwkJPHVzZSB4bGluazpocmVmPSIjQiIvPiYjeGE7CQk8cGF0aCBkPSJNMzY5LjQ2NSA2MS41N2wtNi4zNDUtMS4zNWMtMi40My0uNTQtNS4wNC0uODEtNy44My0uODEtMS4yNiAwLTIuNzkuMTM1LTQuNTkuNDA1LTEuNzEuMTgtMy4wMTUuNDA1LTMuOTE1LjY3NXY1NC4yN0gzMjYuNjdWNDcuNTNjMy42LTEuMjYgNy44My0yLjQzIDEyLjY5LTMuNTEgNC45NS0xLjE3IDEwLjQ0LTEuNzU1IDE2LjQ3LTEuNzU1IDEuMDggMCAyLjM4NS4wOSAzLjkxNS4yN2EzOS45IDM5LjkgMCAwIDEgNC41OS41NCA0MC45MiA0MC45MiAwIDAgMSA0LjU5LjgxYzEuNTMuMjcgMi44MzUuNjMgMy45MTUgMS4wOGwtMy4zNzUgMTYuNjA1bTE0LjE1OC0xNS4zOWMzLjQyLS45OSA3LjgzLTEuODkgMTMuMjMtMi43IDUuNC0uOSAxMS4wNy0xLjM1IDE3LjAxLTEuMzUgNi4wMyAwIDExLjAyNS44MSAxNC45ODUgMi40MyA0LjA1IDEuNTMgNy4yNDUgMy43MzUgOS41ODUgNi42MTVzNC4wMDUgNi4zIDQuOTk1IDEwLjI2IDEuNDg1IDguMzcgMS40ODUgMTMuMjN2NDAuMDk1aC0yMC4xMTVWNzcuMDk1YzAtNi40OC0uODU1LTExLjA3LTIuNTY1LTEzLjc3cy00LjkwNS00LjA1LTkuNTg1LTQuMDVhNDEuNjYgNDEuNjYgMCAwIDAtNC41OS4yNyA1MC43NyA1MC43NyAwIDAgMC00LjMyLjQwNXY1NC44MWgtMjAuMTE1VjQ2LjE4bTc2LjI1NCAzMy42MTVjMC02LjMuOTQ1LTExLjc5IDIuODM1LTE2LjQ3IDEuOTgtNC43NyA0LjU0NS04LjczIDcuNjk1LTExLjg4czYuNzUtNS41MzUgMTAuOC03LjE1NWM0LjE0LTEuNjIgOC4zNy0yLjQzIDEyLjY5LTIuNDMgMTAuMDggMCAxOC4wNDUgMy4xMDUgMjMuODk1IDkuMzE1IDUuODUgNi4xMiA4Ljc3NSAxNS4xNjUgOC43NzUgMjcuMTM1IDAgMS4xNy0uMDQ1IDIuNDc1LS4xMzUgMy45MTVsLS4yNyAzLjY0NWgtNDUuNjNjLjQ1IDQuMTQgMi4zODUgNy40MjUgNS44MDUgOS44NTVzOC4wMSAzLjY0NSAxMy43NyAzLjY0NWMzLjY5IDAgNy4yOS0uMzE1IDEwLjgtLjk0NSAzLjYtLjcyIDYuNTI1LTEuNTc1IDguNzc1LTIuNTY1bDIuNyAxNi4zMzVjLTEuMDguNTQtMi41MiAxLjA4LTQuMzIgMS42MnMtMy44MjUuOTktNi4wNzUgMS4zNWMtMi4xNi40NS00LjUuODEtNy4wMiAxLjA4cy01LjA0LjQwNS03LjU2LjQwNWMtNi4zOSAwLTExLjk3LS45NDUtMTYuNzQtMi44MzUtNC42OC0xLjg5LTguNTk1LTQuNDU1LTExLjc0NS03LjY5NS0zLjA2LTMuMzMtNS4zNTUtNy4yNDUtNi44ODUtMTEuNzQ1LTEuNDQtNC41LTIuMTYtOS4zNi0yLjE2LTE0LjU4bTQ3LjI1LTcuNjk1YTE4Ljg2IDE4Ljg2IDAgMCAwLS45NDUtNC45OTVjLS40NS0xLjYyLTEuMjE1LTMuMDYtMi4yOTUtNC4zMi0uOTktMS4yNi0yLjI5NS0yLjI5NS0zLjkxNS0zLjEwNS0xLjUzLS44MS0zLjQ2NS0xLjIxNS01LjgwNS0xLjIxNS0yLjI1IDAtNC4xODUuNDA1LTUuODA1IDEuMjE1LTEuNjIuNzItMi45NyAxLjcxLTQuMDUgMi45N3MtMS45MzUgMi43NDUtMi41NjUgNC40NTVhMzEuMTEgMzEuMTEgMCAwIDAtMS4yMTUgNC45OTVoMjYuNTk1bTM0LjI4OC00Ni4wMzVsMjAuMTE1LTMuMjRWNDMuNzVoMjQuMTY1djE2Ljc0SDU2MS41M3YyNC45NzVjMCA0LjIzLjcyIDcuNjA1IDIuMTYgMTAuMTI1IDEuNTMgMi41MiA0LjU0NSAzLjc4IDkuMDQ1IDMuNzggMi4xNiAwIDQuMzY1LS4xOCA2LjYxNS0uNTQgMi4zNC0uNDUgNC40NTUtMS4wMzUgNi4zNDUtMS43NTVsMi44MzUgMTUuNjZjLTIuNDMuOTktNS4xMyAxLjg0NS04LjEgMi41NjVzLTYuNjE1IDEuMDgtMTAuOTM1IDEuMDhjLTUuNDkgMC0xMC4wMzUtLjcyLTEzLjYzNS0yLjE2LTMuNi0xLjUzLTYuNDgtMy42LTguNjQtNi4yMS0yLjE2LTIuNy0zLjY5LTUuOTQtNC41OS05LjcyLS44MS0zLjc4LTEuMjE1LTcuOTY1LTEuMjE1LTEyLjU1NXYtNTkuNjciLz4mI3hhOwkJPHVzZSB4bGluazpocmVmPSIjQiIgeD0iMzUxLjQ3NSIvPiYjeGE7CQk8cGF0aCBkPSJNNjk4LjUzIDEwMC4zMTVjMy42OSAwIDYuMy0uMzYgNy44My0xLjA4czIuMjk1LTIuMTE1IDIuMjk1LTQuMTg1YzAtMS42Mi0uOTktMy4wMTUtMi45Ny00LjE4NS0xLjk4LTEuMjYtNC45OTUtMi42NTUtOS4wNDUtNC4xODVMNjg4IDgzLjAzNWMtMi41Mi0xLjI2LTQuNjgtMi43NDUtNi40OC00LjQ1NS0xLjgtMS44LTMuMTk1LTMuOTE1LTQuMTg1LTYuMzQ1cy0xLjQ4NS01LjM1NS0xLjQ4NS04Ljc3NWMwLTYuNjYgMi40NzUtMTEuOTI1IDcuNDI1LTE1Ljc5NXMxMS43NDUtNS44MDUgMjAuMzg1LTUuODA1YzQuMzIgMCA4LjQ2LjQwNSAxMi40MiAxLjIxNSAzLjk2LjcyIDcuMTEgMS41MyA5LjQ1IDIuNDNsLTMuNTEgMTUuNjZjLTIuMzQtLjgxLTQuOTA1LTEuNTMtNy42OTUtMi4xNi0yLjctLjYzLTUuNzYtLjk0NS05LjE4LS45NDUtNi4zIDAtOS40NSAxLjc1NS05LjQ1IDUuMjY1IDAgLjgxLjEzNSAxLjUzLjQwNSAyLjE2cy44MSAxLjI2IDEuNjIgMS44OWMuODEuNTQgMS44OSAxLjE3IDMuMjQgMS44OSAxLjQ0LjYzIDMuMjQgMS4zNSA1LjQgMi4xNiA0LjQxIDEuNjIgOC4wNTUgMy4yNCAxMC45MzUgNC44NiAyLjg4IDEuNTMgNS4xMyAzLjI0IDYuNzUgNS4xMyAxLjcxIDEuOCAyLjg4IDMuODI1IDMuNTEgNi4wNzUuNzIgMi4yNSAxLjA4IDQuODYgMS4wOCA3LjgzIDAgNy4wMi0yLjY1NSAxMi4zMy03Ljk2NSAxNS45My01LjIyIDMuNi0xMi42NDUgNS40LTIyLjI3NSA1LjQtNi4zIDAtMTEuNTY1LS41NC0xNS43OTUtMS42Mi00LjE0LTEuMDgtNy4wMi0xLjk4LTguNjQtMi43bDMuMzc1LTE2LjMzNWE3MS4yIDcxLjIgMCAwIDAgMTAuNTMgMy4yNCA1NC4yOCA1NC4yOCAwIDAgMCAxMC42NjUgMS4wOCIvPiYjeGE7CTwvZz4mI3hhOwk8ZGVmcz4mI3hhOwkJPHBhdGggaWQ9IkIiIGQ9Ik0yNDQuNDU3IDc5Ljc5NWMwLTYuMy45NDUtMTEuNzkgMi44MzUtMTYuNDcgMS45OC00Ljc3IDQuNTQ1LTguNzMgNy42OTUtMTEuODhzNi43NS01LjUzNSAxMC44LTcuMTU1YzQuMTQtMS42MiA4LjM3LTIuNDMgMTIuNjktMi40MyAxMC4wOCAwIDE4LjA0NSAzLjEwNSAyMy44OTUgOS4zMTUgNS44NSA2LjEyIDguNzc1IDE1LjE2NSA4Ljc3NSAyNy4xMzUgMCAxLjE3LS4wNDUgMi40NzUtLjEzNSAzLjkxNWwtLjI3IDMuNjQ1aC00NS42M2MuNDUgNC4xNCAyLjM4NSA3LjQyNSA1LjgwNSA5Ljg1NXM4LjAxIDMuNjQ1IDEzLjc3IDMuNjQ1YzMuNjkgMCA3LjI5LS4zMTUgMTAuOC0uOTQ1IDMuNi0uNzIgNi41MjUtMS41NzUgOC43NzUtMi41NjVsMi43IDE2LjMzNWMtMS4wOC41NC0yLjUyIDEuMDgtNC4zMiAxLjYycy0zLjgyNS45OS02LjA3NSAxLjM1Yy0yLjE2LjQ1LTQuNS44MS03LjAyIDEuMDhzLTUuMDQuNDA1LTcuNTYuNDA1Yy02LjM5IDAtMTEuOTctLjk0NS0xNi43NC0yLjgzNS00LjY4LTEuODktOC41OTUtNC40NTUtMTEuNzQ1LTcuNjk1LTMuMDYtMy4zMy01LjM1NS03LjI0NS02Ljg4NS0xMS43NDUtMS40NC00LjUtMi4xNi05LjM2LTIuMTYtMTQuNThtNDcuMjUtNy42OTVhMTguODYgMTguODYgMCAwIDAtLjk0NS00Ljk5NWMtLjQ1LTEuNjItMS4yMTUtMy4wNi0yLjI5NS00LjMyLS45OS0xLjI2LTIuMjk1LTIuMjk1LTMuOTE1LTMuMTA1LTEuNTMtLjgxLTMuNDY1LTEuMjE1LTUuODA1LTEuMjE1LTIuMjUgMC00LjE4NS40MDUtNS44MDUgMS4yMTUtMS42Mi43Mi0yLjk3IDEuNzEtNC4wNSAyLjk3cy0xLjkzNSAyLjc0NS0yLjU2NSA0LjQ1NWMtLjU0IDEuNjItLjk0NSAzLjI4NS0xLjIxNSA0Ljk5NWgyNi41OTUiLz4mI3hhOwk8L2RlZnM+JiN4YTs8L3N2Zz4=;fontColor=default;" parent="1" vertex="1">
          <mxGeometry x="646" y="231" width="135" height="20" as="geometry" />
        </mxCell>
        <mxCell id="SLHuEtTYFkW_0ceZfKXF-6" value="" style="editableCssRules=.*;shape=image;verticalLabelPosition=bottom;labelBackgroundColor=#ffffff;verticalAlign=top;aspect=fixed;imageAspect=0;image=data:image/svg+xml,PHN2ZyB4bWxucz0iaHR0cDovL3d3dy53My5vcmcvMjAwMC9zdmciIHhtbG5zOnY9Imh0dHBzOi8vdmVjdGEuaW8vbmFubyIgd2lkdGg9IjcwMi44NDYzMTM0NzY1NjI1IiBoZWlnaHQ9IjY4MS45NjcxMDIwNTA3ODEyIiB2aWV3Qm94PSIxMC4wMDEwMjYxNTM1NjQ0NTMgMTAuMDAwOTMzNjQ3MTU1NzYyIDcwMi44NDYzMTM0NzY1NjI1IDY4MS45NjcxMDIwNTA3ODEyIj4mI3hhOwk8c3R5bGUgdHlwZT0idGV4dC9jc3MiPiYjeGE7CS5zdDB7ZmlsbDojMzI2Y2U1O30mI3hhOwkuc3Qxe2ZpbGw6I2ZmZjt9JiN4YTsJPC9zdHlsZT4mI3hhOwk8cGF0aCBjbGFzcz0ic3QwIiBkPSJNMzU4Ljk4NyAxMC4wNmMtNi4yMTMuMzEzLTEyLjMwMSAxLjg1NC0xNy45MDYgNC41MzFMOTYuNzM3IDEzMS4zNDJjLTEyLjgxMSA2LjExOC0yMi4xMTYgMTcuNjg5LTI1LjI4MSAzMS40MzhsLTYwLjI4MSAyNjIuMjVjLTIuODEyIDEyLjIwNy0uNTI0IDI1LjAyNCA2LjM0NCAzNS41MzFhNDYuMzUgNDYuMzUgMCAwIDAgMi42NTYgMy42ODhsMTY5LjEyNSAyMTAuMjgxYzguODY4IDExLjAyMiAyMi4zMTMgMTcuNDQgMzYuNTMxIDE3LjQzOGwyNzEuMjE5LS4wNjJjMTQuMjEyLjAxIDI3LjY1Ny02LjM5NiAzNi41MzEtMTcuNDA2bDE2OS4wNjMtMjEwLjMxM2M4Ljg3My0xMS4wMjggMTIuMTk3LTI1LjQ2NCA5LjAzMS0zOS4yMTlsLTYwLjM3NS0yNjIuMjVjLTMuMTY1LTEzLjc0OC0xMi40Ny0yNS4zMTktMjUuMjgxLTMxLjQzN0wzODEuNjQzIDE0LjU5MmMtNy4wNS0zLjM2OC0xNC44NDEtNC45MjYtMjIuNjU2LTQuNTMxeiIvPiYjeGE7CTxwYXRoIGNsYXNzPSJzdDEgc3QyIiBkPSJNMzYxLjQwOCA5OS4zMDhjLTguMDc3LjAwMS0xNC42MjYgNy4yNzYtMTQuNjI1IDE2LjI1IDAgLjEzOC4wMjguMjY5LjAzMS40MDYtLjAxMiAxLjIxOS0uMDcxIDIuNjg4LS4wMzEgMy43NS4xOTMgNS4xNzYgMS4zMjEgOS4xMzcgMiAxMy45MDYgMS4yMyAxMC4yMDcgMi4yNjEgMTguNjY3IDEuNjI1IDI2LjUzMS0uNjE5IDIuOTY1LTIuODAzIDUuNjc3LTQuNzUgNy41NjNsLS4zNDQgNi4xODhjLTguNzc3LjcyNy0xNy42MTIgMi4wNTktMjYuNDM3IDQuMDYzLTM3Ljk3NSA4LjYyMi03MC42NyAyOC4xODMtOTUuNTYyIDU0LjU5NC0xLjYxNS0xLjEwMi00LjQ0MS0zLjEyOS01LjI4MS0zLjc1LTIuNjExLjM1My01LjI1IDEuMTU4LTguNjg3LS44NDQtNi41NDUtNC40MDYtMTIuNTA2LTEwLjQ4Ny0xOS43MTktMTcuODEyLTMuMzA1LTMuNTA0LTUuNjk4LTYuODQxLTkuNjI1LTEwLjIxOS0uODkyLS43NjctMi4yNTMtMS44MDUtMy4yNS0yLjU5NC0zLjA3LTIuNDQ4LTYuNjkxLTMuNzI0LTEwLjE4Ny0zLjg0NC00LjQ5Ni0uMTU0LTguODI0IDEuNjA0LTExLjY1NiA1LjE1Ni01LjAzNSA2LjMxNS0zLjQyMyAxNS45NjggMy41OTQgMjEuNTYzLjA3MS4wNTcuMTQ3LjEwMS4yMTkuMTU2Ljk2NC43ODIgMi4xNDUgMS43ODMgMy4wMzEgMi40MzggNC4xNjcgMy4wNzcgNy45NzMgNC42NTEgMTIuMTI1IDcuMDk0IDguNzQ3IDUuNDAyIDE1Ljk5OCA5Ljg4MSAyMS43NSAxNS4yODEgMi4yNDYgMi4zOTQgMi42MzkgNi42MTMgMi45MzggOC40MzhsNC42ODggNC4xODhjLTI1LjA5MyAzNy43NjQtMzYuNzA3IDg0LjQwOS0yOS44NDQgMTMxLjkzOGwtNi4xMjUgMS43ODFjLTEuNjE0IDIuMDg1LTMuODk1IDUuMzY1LTYuMjgxIDYuMzQ0LTcuNTI1IDIuMzctMTUuOTk0IDMuMjQxLTI2LjIxOSA0LjMxMy00LjguMzk5LTguOTQyLjE2MS0xNC4wMzEgMS4xMjUtMS4xMi4yMTItMi42ODEuNjE5LTMuOTA2LjkwNi0uMDQzLjAwOS0uMDgyLjAyMi0uMTI1LjAzMS0uMDY3LjAxNS0uMTU1LjA0OC0uMjE5LjA2My04LjYyIDIuMDgzLTE0LjE1OCAxMC4wMDYtMTIuMzc1IDE3LjgxM3MxMC4yMDMgMTIuNTU3IDE4Ljg3NSAxMC42ODhjLjA2My0uMDE0LjE1NC0uMDE3LjIxOS0uMDMxLjA5OC0uMDIyLjE4NC0uMDcuMjgxLS4wOTQgMS4yMDktLjI2NSAyLjcyNC0uNTYxIDMuNzgxLS44NDQgNS4wMDMtMS4zNCA4LjYyNy0zLjMwOCAxMy4xMjUtNS4wMzEgOS42NzctMy40NzEgMTcuNjkyLTYuMzcgMjUuNS03LjUgMy4yNjEtLjI1NSA2LjY5NyAyLjAxMiA4LjQwNiAyLjk2OWw2LjM3NS0xLjA5NGMxNC42NyA0NS40ODMgNDUuNDE0IDgyLjI0NSA4NC4zNDQgMTA1LjMxMmwtMi42NTYgNi4zNzVjLjk1NyAyLjQ3NSAyLjAxMyA1LjgyNSAxLjMgOC4yNjktMi44MzkgNy4zNjEtNy43MDEgMTUuMTMxLTEzLjIzOCAyMy43OTMtMi42ODEgNC4wMDItNS40MjUgNy4xMDgtNy44NDQgMTEuNjg4LS41NzkgMS4wOTYtMS4zMTYgMi43NzktMS44NzUgMy45MzgtMy43NTkgOC4wNDItMS4wMDIgMTcuMzA1IDYuMjE5IDIwLjc4MSA3LjI2NiAzLjQ5OCAxNi4yODQtLjE5MSAyMC4xODctOC4yNS4wMDYtLjAxMS4wMjYtLjAyLjAzMS0uMDMxcy0uMDA0LS4wMjMgMC0uMDMxYy41NTYtMS4xNDMgMS4zNDQtMi42NDQgMS44MTMtMy43MTkgMi4wNzItNC43NDcgMi43NjItOC44MTUgNC4yMTktMTMuNDA2IDMuODctOS43MiA1Ljk5Ni0xOS45MTkgMTEuMzIzLTI2LjI3NCAxLjQ1OS0xLjc0IDMuODM3LTIuNDA5IDYuMzAyLTMuMDdsMy4zMTMtNmMzMy45MzggMTMuMDI3IDcxLjkyNyAxNi41MjIgMTA5Ljg3NSA3LjkwNmExODkuNzcgMTg5Ljc3IDAgMCAwIDI1LjA5NC03LjU2MmwzLjEyNSA1LjYyNWMyLjUwNi44MTUgNS4yNCAxLjIzNiA3LjQ2OSA0LjUzMSAzLjk4NSA2LjgwOSA2LjcxMSAxNC44NjQgMTAuMDMxIDI0LjU5NCAxLjQ1NyA0LjU5MSAyLjE3OCA4LjY1OSA0LjI1IDEzLjQwNi40NzIgMS4wODIgMS4yNTYgMi42MDUgMS44MTMgMy43NSAzLjg5NSA4LjA4NSAxMi45NDIgMTEuNzg3IDIwLjIxOSA4LjI4MSA3LjIxOS0zLjQ3OCA5Ljk4LTEyLjc0IDYuMjE5LTIwLjc4MWwtMS45MDYtMy45MzdjLTIuNDE5LTQuNTgtNS4xNjMtNy42NTQtNy44NDQtMTEuNjU2LTUuNTM3LTguNjYyLTEwLjEzLTE1Ljg1OC0xMi45NjktMjMuMjE5LTEuMTg3LTMuNzk3LjItNi4xNTggMS4xMjUtOC42MjUtLjU1NC0uNjM1LTEuNzM5LTQuMjItMi40MzctNS45MDYgNDAuNDU3LTIzLjg4OCA3MC4yOTktNjIuMDIxIDg0LjMxMy0xMDYuMDYyIDEuODkyLjI5NyA1LjE4Mi44NzkgNi4yNSAxLjA5NCAyLjItMS40NTEgNC4yMjItMy4zNDQgOC4xODgtMy4wMzEgNy44MDggMS4xMjkgMTUuODIzIDQuMDMgMjUuNSA3LjUgNC40OTggMS43MjMgOC4xMjIgMy43MjMgMTMuMTI1IDUuMDYzIDEuMDU3LjI4MyAyLjU3Mi41NDcgMy43ODEuODEzLjA5Ny4wMjQuMTgzLjA3MS4yODEuMDk0LjA2NS4wMTUuMTU2LjAxNy4yMTkuMDMxIDguNjcyIDEuODY3IDE3LjA5NC0yLjg3OSAxOC44NzUtMTAuNjg3cy0zLjc1NC0xNS43MzItMTIuMzc1LTE3LjgxMmMtMS4yNTQtLjI4NS0zLjAzMi0uNzY5LTQuMjUtMS01LjA4OS0uOTY0LTkuMjMxLS43MjYtMTQuMDMxLTEuMTI1LTEwLjIyNS0xLjA3MS0xOC42OTMtMS45NDMtMjYuMjE5LTQuMzEyLTMuMDY4LTEuMTktNS4yNTEtNC44NDEtNi4zMTMtNi4zNDRsLTUuOTA2LTEuNzE5YzMuMDYyLTIyLjE1NCAyLjIzNy00NS4yMTEtMy4wNjItNjguMjgxLTUuMzQ4LTIzLjI4NS0xNC44LTQ0LjU4MS0yNy40MDYtNjMuMzQ0bDUuMTg4LTQuNjU2Yy4yMzctMi42MjQuMDMzLTUuMzc2IDIuNzUtOC4yODEgNS43NTEtNS40MDEgMTMuMDAzLTkuODc5IDIxLjc1LTE1LjI4MSA0LjE1Mi0yLjQ0MyA3Ljk5LTQuMDE3IDEyLjE1Ni03LjA5NC45NDItLjY5NiAyLjIyOS0xLjc5OCAzLjIxOS0yLjU5NCA3LjAxNS01LjU5NiA4LjYzMS0xNS4yNDggMy41OTQtMjEuNTYycy0xNC43OTctNi45MDktMjEuODEyLTEuMzEyYy0uOTk5Ljc5MS0yLjM1NCAxLjgyMy0zLjI1IDIuNTk0LTMuOTI3IDMuMzc4LTYuMzUxIDYuNzE0LTkuNjU2IDEwLjIxOS03LjIxMiA3LjMyNi0xMy4xNzQgMTMuNDM4LTE5LjcxOSAxNy44NDQtMi44MzYgMS42NTEtNi45OSAxLjA4LTguODc1Ljk2OWwtNS41NjIgMy45NjljLTMxLjcxOS0zMy4yNjEtNzQuOTA1LTU0LjUyNS0xMjEuNDA2LTU4LjY1NmwtLjM0NC02LjUzMWMtMS45MDQtMS44MjItNC4yMDMtMy4zNzctNC43ODEtNy4zMTItLjYzNi03Ljg2NC40MjYtMTYuMzI1IDEuNjU2LTI2LjUzMS42NzktNC43NjkgMS44MDctOC43MyAyLTEzLjkwNi4wNDQtMS4xNzctLjAyNi0yLjg4NC0uMDMxLTQuMTU2LS4wMDEtOC45NzQtNi41NDgtMTYuMjUxLTE0LjYyNS0xNi4yNXptLTE4LjMxMiAxMTMuNDM4bC00LjM0NCA3Ni43MTktLjMxMi4xNTZjLS4yOTEgNi44NjMtNS45NCAxMi4zNDQtMTIuODc1IDEyLjM0NGExMi44MiAxMi44MiAwIDAgMS03LjU5NC0yLjQ2OWwtLjEyNS4wNjMtNjIuOTA2LTQ0LjU5NGMxOS4zMzQtMTkuMDExIDQ0LjA2My0zMy4wNiA3Mi41NjItMzkuNTMxIDUuMjA2LTEuMTgyIDEwLjQxLTIuMDU5IDE1LjU5NC0yLjY4N3ptMzYuNjU2IDBjMzMuMjczIDQuMDkyIDY0LjA0NSAxOS4xNTkgODcuNjI1IDQyLjI1bC02Mi41IDQ0LjMxMy0uMjE5LS4wOTRhMTIuOTEgMTIuOTEgMCAwIDEtMTcuNjg3LTIuMzc1Yy0xLjc3MS0yLjIyMS0yLjcwMS00LjgzMi0yLjgxMi03LjQ2OWwtLjA2Mi0uMDMxek0yMzIuMTI2IDI4My42Mmw1Ny40MzcgNTEuMzc1LS4wNjIuMzEzYTEyLjg4IDEyLjg4IDAgMCAxIDEuNjI1IDE3Ljc1IDEyLjg5IDEyLjg5IDAgMCAxLTYuNjg3IDQuNDA2bC0uMDYyLjI1LTczLjYyNSAyMS4yNWMtMy43NDctMzQuMjY1IDQuMzI5LTY3LjU3NCAyMS4zNzUtOTUuMzQ0em0yNTguMTU2LjAzMWM4LjUzNCAxMy44MzMgMTQuOTk3IDI5LjI4MiAxOC44NDQgNDYuMDMxIDMuODAxIDE2LjU0OCA0Ljc1NSAzMy4wNjcgMy4xODggNDkuMDMxbC03NC0yMS4zMTItLjA2Mi0uMzEyYy02LjYyNy0xLjgxMS0xMC42OTktOC41NTItOS4xNTYtMTUuMzEyLjYzMi0yLjc3IDIuMTAyLTUuMTEzIDQuMDk0LTYuODQ0bC0uMDMxLS4xNTYgNTcuMTI1LTUxLjEyNXptLTE0MC42NTYgNTUuMzEzaDIzLjUzMWwxNC42MjUgMTguMjgxLTUuMjUgMjIuODEzLTIxLjEyNSAxMC4xNTYtMjEuMTg3LTEwLjE4Ny01LjI1LTIyLjgxMnptNzUuNDM4IDYyLjU2M2ExMi44MyAxMi44MyAwIDAgMSAyLjk2OS4yMTlsLjEyNS0uMTU2IDc2LjE1NiAxMi44NzVjLTExLjE0NiAzMS4zMTMtMzIuNDczIDU4LjQ0LTYwLjk2OSA3Ni41OTRsLTI5LjU2Mi03MS40MDYuMDk0LS4xMjVjLTIuNzE2LTYuMzEuMDAyLTEzLjcxIDYuMjUtMTYuNzE5IDEuNi0uNzcgMy4yNzEtMS4xOTcgNC45MzgtMS4yODF6bS0xMjcuOTA2LjMxM2ExMi45IDEyLjkgMCAwIDEgMTIuMzc1IDEwLjAzMSAxMi43NyAxMi43NyAwIDAgMS0uNzE5IDcuOTM4bC4yMTkuMjgxLTI5LjI1IDcwLjY4OGMtMjcuMzQ3LTE3LjU0OS00OS4xMjktNDMuODI0LTYwLjc4MS03Ni4wNjJsNzUuNS0xMi44MTIuMTI1LjE1NmMuODQ1LS4xNTUgMS43MDEtLjIzIDIuNTMxLS4yMTl6bTYzLjc4MSAzMC45NjljMi4wMjQtLjA3NCA0LjA3OS4zNDEgNi4wMzEgMS4yODEgMi41NiAxLjIzMyA0LjUzNyAzLjE3MyA1Ljc4MSA1LjVoLjI4MWwzNy4yMTkgNjcuMjVjLTQuODMgMS42MTktOS43OTYgMy4wMDMtMTQuODc1IDQuMTU2LTI4LjQ2NSA2LjQ2My01Ni44MzkgNC41MDUtODIuNTMxLTQuMjVsMzcuMTI1LTY3LjEyNWguMDYzYTEyLjkxIDEyLjkxIDAgMCAxIDEwLjkwNi02LjgxMnoiIHN0cm9rZT0ibm9uZSIgc3Ryb2tlLXdpZHRoPSIuMjUiLz4mI3hhOzwvc3ZnPg==;fontColor=default;" parent="1" vertex="1">
          <mxGeometry x="546" y="229" width="76" height="72.2" as="geometry" />
        </mxCell>
        <mxCell id="SLHuEtTYFkW_0ceZfKXF-10" value="" style="edgeStyle=orthogonalEdgeStyle;rounded=0;orthogonalLoop=1;jettySize=auto;html=1;" parent="1" source="SLHuEtTYFkW_0ceZfKXF-7" edge="1">
          <mxGeometry relative="1" as="geometry">
            <mxPoint x="524" y="318.5" as="targetPoint" />
            <Array as="points">
              <mxPoint x="467" y="319" />
              <mxPoint x="467" y="319" />
            </Array>
          </mxGeometry>
        </mxCell>
        <mxCell id="SLHuEtTYFkW_0ceZfKXF-11" value="" style="edgeStyle=orthogonalEdgeStyle;rounded=0;orthogonalLoop=1;jettySize=auto;html=1;" parent="1" source="SLHuEtTYFkW_0ceZfKXF-7" target="SLHuEtTYFkW_0ceZfKXF-1" edge="1">
          <mxGeometry relative="1" as="geometry" />
        </mxCell>
        <mxCell id="SLHuEtTYFkW_0ceZfKXF-7" value="" style="shape=image;verticalLabelPosition=bottom;labelBackgroundColor=default;verticalAlign=top;aspect=fixed;imageAspect=0;image=data:image/png,iVBORw0KGgoAAAANSUhEUgAAAOEAAADhCAMAAAAJbSJIAAABR1BMVEX///8AAAD/cz7j9v3N7ff/azz/bz+z0fP/X0Kvz/Ll+P0EBwfm7/v/cTv/cj7h4eHs7OzK8//AwMD/bjX/ay3/Wzv/qXj5+fn/9/X/bzff8/z/Y0H/WThNTU1ra2vU8Pm82PX/UCr/glS1tbXD3fb/VTFaWlrz8/Otra3Y2Nj/aSjPz8///Pr/sJb/vaejo6OOjo43Nzd1dXXT6vmWlpb/lnL/ybgaGhovLy9ZWVnK4vff7Pvu9Pz/7+z/mokpKSn/z8f/hnH/oYH/hln/5Nv/2s6EhITtppDzlHjosaH/bFDR4+r/dlz/r6H/pZb/jXreysXiv7b1i2v/k2H/nm3wnoT6fVXprJzroJbmr6nfwsHyinv/aUz3eWT/vbLluq2wiX/bYTCCMAO3TSEpGRReIwQ2GhCrTyxvNR9QJxePQybDw9n/XAA1R4+fAAASPklEQVR4nO2d6V8aSRrHGwxyKGDbzXAIhqtVDk8EEwQvwEzUqElmJ3MYs7Ozu5mdzf//euvoOrsbTVbo7vnwe7Ej3QWpbz9PPU89VQWrKDPNNNNMM80000wzzTTTTDPNNEWle4uH3WoRqlptHS723O7Qk6p3WC2Go5LCxe5i2u2ePYXSi90w4ql2W60cVqvVNZHDXb/bsgfxwtVWbi6GNAdl/plrdYsAsuhnyMMitFJrjqBJApdzLQhZ9SnjITBfteVAxyhz0MzFRbd7+/UCfOFubjyeCTkHDVn0mR17oM+A72E805AtaG8/RdYu6O/cY/koY/jQ7X4/Vr1wtPho+zFfrfrGjIfAQR8z/iyM0Ix+GI3VaJgzYExReFic8Z0QY8CMnvfUdDFa5EcgvAZf5p4/f8br+XM7zlgL2N9thPECQ7ArOCi6mBPpGKUlGkHEqtsQ49SLSoBzMHTY82HJlozlQJhyG8NZwIItDjCdhgMvNg4QWtJHiGkBEMQYpTcezpYxNhf2rKMKgCizzT2KUPJVaEVvIha5MRhDV3KPBJTMCBG9mDS60SoFRHk7ZoeiAtmbkRvAMKJ6r9g4jBZpH5GHWgyoqpe127efPv1yW3tmg8mbESJ6bQKX5mYyqG9SBFWf3b4aZHWoel2ff/fp0gIpIFY9F1CLLMpAwLTM97pc1+KJIFQISq+/ux2HOOe1oXjIBiEE7El8HwBekGoeMYbqP8qMHGIsF416aRaeDoed06B6W9aDgkKm6t8/Ux0Rq55KGV3qoxBQdFH1Qz0eDNojavM1R0Tgp96Jpz0WR+FL0fXauswXDCZC1IxvJUSWUlseCjbVKImj8JUYRd9pECluRhlpKNogsulNrOiZYMNMCH1UyIPq99CCicTgfTlrb8RQXYo3cx40omBCYSajvkKAwe+A3sftjRiq1xyGomeMyEwIE4UAeIvGYPwHSPhdOWFvxNC8OHBznjMiDaQWH30Wx3ZDgN8NBCNyhPoHBz8F4dQTOTEcZj4qJAr1FYoywTgmLDu5qaOfxrqeWLVZJEUTNKEQRy817JfxAQT8wSlhAH3vYMRcNOw2ngKdNEdHoWjCD5pJAxF/CCacCfVLh5FY9ELWDxeZk4qpMEjdMp7NSglRInxlb0QQa9yfuvV4JxW6eWszmbEPNaFQ3CHte8FNuyQZKtKyjPq37OMJHWONB6JpMepgQjVomXA7E+qvHdy0627S7x0e9sgwjMk1xWV9LKBIKEdT4qYw6S8euragkYaHKcgwTMtrh7WvIvxReC9zUzAQwT/iFuJiNByma6SKFEnVt+MDjUQozdyYm4bhv+FWysCEOYdh+OmrCKWMyAiLrhOayxeWYai+1hKhlZVIJLKyMu9IuIIFgqlESAdi1X1CGmjEFWD1Qz7CtJKwIVzh7ss2JAMRBFO3CYsOgeanVCSSMoxUJG8g1JAEmIB8qbwBlIdNTy9VW8KW64RVGmiEwumjEcmXbk6G/Ux/9OaiBM0kAkK+0sf7k+Hw5P6qlAKwDQHRi4R8KL1IRUpHfdry5CIvIs4DQK5B/wg8g5KwnEEIc24TknSo8ITqaT6SOuGbNo8M3lGBBVMRocEJ8NR8zS+E6s9GxBhJjSEijalgDKaG4v0heCgXqoVwzpOEl6VI6cTS+jRF/RT4aGko3x+WIsbPqi8I1Z/yqRvSZilJ/uqnqBFXIvk3rAGZkl3nI3detKFNpLmL5M0Ysr4WCBw3GMEKMeFd07y4FwgcVPCfmUjE+EWVCN0fhzaxtFFKnZotdgMLC4HAEn7RByMxIZlwNRAADcxncJ1P/WohdD9bFOV8qP6cN+5xgyQABIj7ZvurFHbTlYhhjsI0brCHX42MyIUH86FlTqP+miIADQFAOTIJQSDN4CvmI1jDrzIgnF7KhO7P2syZd5rOS9WblGEOw3QAEgTMcaa8yeOUGIlckI/ADUwjN+8iBkmJZA/KC4S0ekqTdE8Jle0AUIG0NwlBur8il5ZhgxfmC4HQO7WFWQGz+hB6KZ2ONfbWNmj7a2rDO3qttre2TdJFE0xriJfS6sn9+tCSEEE6NE5s25+ySNO3uw+D7TOJMOeBGr8qLyb+YuSv7ZpnUjRb2D+CjpH6SLIFH0rdI+zBlShSAvfoQLzMs4TO68QwM34owuY8vE5T+Z9UaRh20XekXFszXex2013LQg0ciPc2ra9IdQFCjWGZloKJKZivW4dh9LDr8teGFrnFNtNNa6VIPmNpeA9GGS0tUh+tn3SVYlMaMiuNubeSSJUmA5G5qfpr3koASgdWIAIjvpEbXBuREjEhzYae2AUuksNCCpua3qXyp+JQBDMyrsiH5ZOECABZ8cRW2rywk39I3DTNDkPV8pH8BT/U3hjiKkYIWPGG8+T+KQC0TLs9ss2djhYte8BqzUgBBLPOz9xfGPKCIqzyU9fmQxiCqgIA0lk3t9BWdAuLV5XbXyNGVC8/GnAx8ero6OaiZFiW2pAVI/nSyunR0WmkBKbcdvW9V46b2G/kgyIKLhgCoRVf67I3WjClDa64A27UhF7YH0UqRlmsYUv7l/V5c1HbYVk/OL9CVr1XtA82i1AgznjhKIYCYw1nxDlGCA2VmLeu5wuUQKCFxu2Q8lvcridDU0WzhEIn2KmfPrB/KEj/RAmfe8+EnBGFw5dfRfjWkiliHjIhHIk5y26+qo33T5Hw1uKjIJB6xoTi+UuyyfbQSQVBdXn1AtVNbmPxqnJfCCJZXzzHNt6ghJA7Be2xw/ppsl7DENV3og0li2aF12QLmH6Gxw6yKzDts6/MYES1zZ8Y0kZljUfS28KJWpOQAba8FGawqvx3KyGieCZKv22+Z2f24/UzRTBxXQLMeemgPlGR/27ec3a61HTKvytKJ6vD83vxbL08UpZ+402qqeKXLcJeiqNEvTD/He4cd/gS6R/A6TJbg7iuBduw5tjgLZwIqgJg0Rs1haxF4WvqOelAze/nqFGm38el8T/5m/GyKn5dxnODEOswGua+nB2TDkUFNvi2a/8SCAcxPwAiRGZFmfDfdA8K7St+5u9l29yT6Xr5lxV4xJh0gvZzILBbQbZJ7gcCAeFe9izGWdALKxeO4hGT0sE2uFkaOCjsws2YwB/CLW2TTPpAkPE0IPrZD5I0ZMLPaCctgDfUfhMJP5gT91zRyy6K1aO/bLKkiYTB/6D9ULQn+lm8o7/GG1itcLTo1SDDBH/7A3nqknw8HwQbE/BP6Yb+KQY9tOvxH8Wg6mIzxqzl0x9oDC58lq/rb2PYQz1VTozRIvqRoVjZWiD+9vnPP3+3XAWz1tgceC4+8FAq6G85G0IH6UnwBt8YEAv+2NePjyf8L3BsHxkQazH8LvS4lZrEvPZff/7s3rvQ/AOrpUjz8/Oa7b6+59UPzZvrvWPtBxWy3fj3vK4x4TjGBGlh2G38e139UogR2EKSu/PBhP3pDY/rNBXiIGTIBHcH7gk7HMHxrponH83TpIwEYSIJl1CwiUTy1zbHMzyq/sn1VclI0U1RAUgSCadwu9TIn96PvB9U+29OV4ySkU+lUvk7DFguJ+whgeOa32Avo/ZGqWTc3dxbD6p4Tc3+8OT+6Obmfoh/b2CAZm8yJfLOeBsRapujo9OjN/cnw76/YmofE7a5nxpAw5DFm+wZWlPUttzu6jcqo2GKgeP8NLuJmugdt7v6jcqgEljbdCbUOv4mbKISWNtChHGJE73UO8hLdfkLNr4RCjFaBxO2ecJEEL3UR2hf0b+E2E4neB/tTNyoQC/1ISKs+yfZS0I7iPoIEiaCmyLhpkmIHoL387yDMOEQ/ide3tQEwi34st7HjuxbwjMNdR8Rvt8SCTswWdYz0JETce9PYxwEzZbIZiBhti0QxoMjRNhE9EF/zWQ4IcIgosieiYRlk/AMebDbHf1mbenQQGg4apsSIZq01tFDiA/c7ug3C441YCBoJ21LIuxjQng123a7o9+sEx0ZCBLqnY5ImMkmICF8CD4mHOHuI8KTjm7GGPS/gybM9Tp6CNkztzv6zRri7sOkoY8wYRwv9QPLQlYdPQRt0+2OfrP6ddR9GE30ISbUttA8DRAC1ISmDOu+JszUUXWLCPuYUB+iyWr2PZy0AkIYcHS/FsCYENR+gDCRxYSJOBqVcHSCHJLIgio54d8SX0ETUlA3QMJgBhEC70RZA8cfwAudNR70ZQWc6bR1OJcpo6kNmJghQu0MxRZECK+aswK9vOWvAqo53BrUdS0ez2r6EBOWUV6APgtdFxIiy4LGAz0LGur1+ObIJxPwTOdsEAyWkQabsC4CMQV4J7IdBIZpAuQQaDxUGHbauDF4U9sXpmxmxEqheQZRNhVzqo2rRkAI8wSYnspvnmJPn0KZ0VZbB96oBTOIEFURaCoKpjFndWDb+mDLByv5dmpmhltnZfgb+pqma+0+noaj+Rmay70Hf2wG4c16vR5sb458ttqtNEedLahNoK0ONFITTtfQwmgffhEDLa8BE6MGSB1/mpKqE4SlbhYNszZaotn025AbI5A8yjpcj6njzN6HtEEtfuaX9DBe/Q4Yjlo8AVMembr00f8VRFzTs/5ID84agkj65QsIJXV4fn2Ls9jorJyFMab+5cuXgW9SvVWZfobKEiqb7J7f4uhMM80000wT0fqS9VKyZr0oaymZfLjRJJXcXsVfoFjdTjq1SS+fH8M2e9y12n4BHWkPHOwtO54Mbuzg754Ejs+Xn7TXj9ey2U2sgm031ncWSIM1+/ct7KzbvbGyyzc62HfhiHRS6AJitDrUNn+/ht9XkN8nfqnN4cMXpm7HfUs/gSpim3TBenfD7n1rkoW27RrtKVPVnl0fAtz374CWjsWb8BcubR9MILC7/ogPLyhTlEMfBIdLH0gUioNxoF5wH77j1GiKiA6WgGrQRtJQKqybv5JoLxqH7P0Ya2qOWmP/5sLexvLyxh4NmIEDMqQ4S+zuVJZhNknz76s0asv73FMg1k+ySwfnlUZjef8FuzKtcMP+SfKjjmlm1R25o7vUrOeW9ykN9lnmUHxpYVaWmb9PhU+p0L5z8SFJzYg7v0pesuBDoQ/46QHFxt/1pv6xy8dX+mnbE+RiKtj1gfUfdWLJCkj9dkHMmzRqoVerth9OL79QpiCKIiV4EkZQxCNB8yXXgPhaQ3wfDUlwkK2TD5dmgTQw156cxyrSeYvDkBEEyQvc36aI/63J7yM3VhX2mHbkRmRo7Ms3JiACYrlBerfMouYqd5s8GdmE9HHAhEk82ToB5D1kwjJnKja5iRmXeDI/jTNDyoF1Dk0CcZo+vmPrh+853nlqrZtB0zpdJlnkHP7MtXXUrDoagRh/iY5Jm8dnusCCbSXypCLmsUm+a9Q1uT5TvXQYhux5JOlDsgxDNhAnXxH/v4Qvre/jCHepG8jamBrhGC89HktoDiSbjLbBCAuOrmzGIJth/ORiHLICYwn3GYekVXaHpH/rh5vW3X06EEc9mC0cCMk1Sx7lszwxZ0VuRAbHNMoLktcs0YDMTRwIKYjsZ3RmmmQgFl8mdragT0B01iZNoGh160BIApHs3yTOYP8lj0mKNXS2P/lkobAZmTiiWHXrREhbCL3nik34efQ5Cc5Mn8J0amD20Ll4ypX9ToSs6n/JLMFX9OiJ0Vd7zJvZ4seU1ofZEtruBvon1ze4OtyZkD2awA6iWRdXRdE16o+Bg33Lh9vkyYloie/Wi0KBxxtHKCxgHRQK8qIo9vo17sqx+OHTSIZYY1aUxhIq1tVgK2H6+IEGU9GY9bCxhOsvxr3RBFhacLhvrbsmqIpDJx4gVNKW5XoroWUp2Q1Au50FMGrwf7jqyWbcnDu+j3NCmxVnm12RSWtbWtN+0WjQZ23W+LYFeU0ajAcVrrYgakgP8MBmoj95pStsbRNvrm2bJiRu6hAZGpyJChWheuIarYqN3FKtsr+zs7/RMN0xubNvzuWS56vj9vxqlZ29vfNt/D5bQthog2vkaznGJf+psfrSbseXLLD531bbDoPTTJLTKG4nq6RDgCVOOuVN3gmITITkNaxjh+v+E50HiaUzTTkudesJxUoSbv6VpqXENHYkJi22LXxOImqFTowW/B9JgbiiobBfWd7mp5/+H4VQXJEva1rV+6TlWHRN9azMROWAaLNd41vZLoD8VVwUa2lV5jv4awQZTjWBcdeV2nbSWtpY3QWJcOG4sD+NsxUuKb20NJU9iJlmmmmmmWaaaaaZZpppppkepf8BMDUllmUtJJYAAAAASUVORK5CYII=;" parent="1" vertex="1">
          <mxGeometry x="220" y="206" width="225" height="225" as="geometry" />
        </mxCell>
        <mxCell id="SLHuEtTYFkW_0ceZfKXF-16" value="" style="edgeStyle=orthogonalEdgeStyle;rounded=0;orthogonalLoop=1;jettySize=auto;html=1;entryX=0.5;entryY=0;entryDx=0;entryDy=0;entryPerimeter=0;" parent="1" target="SLHuEtTYFkW_0ceZfKXF-1" edge="1">
          <mxGeometry relative="1" as="geometry">
            <mxPoint x="93" y="116" as="sourcePoint" />
            <mxPoint x="93" y="196" as="targetPoint" />
          </mxGeometry>
        </mxCell>
        <mxCell id="SLHuEtTYFkW_0ceZfKXF-17" value="" style="shape=actor;whiteSpace=wrap;html=1;fillColor=#ffe6cc;strokeColor=#d79b00;" parent="1" vertex="1">
          <mxGeometry x="73" y="84" width="40" height="60" as="geometry" />
        </mxCell>
        <mxCell id="SLHuEtTYFkW_0ceZfKXF-18" value="Git based Version Control Sustem" style="text;html=1;strokeColor=none;fillColor=none;align=center;verticalAlign=middle;whiteSpace=wrap;rounded=0;" parent="1" vertex="1">
          <mxGeometry x="48" y="375" width="105" height="30" as="geometry" />
        </mxCell>
        <mxCell id="SLHuEtTYFkW_0ceZfKXF-19" value="&lt;font style=&quot;font-size: 18px&quot;&gt;Pull Changes&lt;/font&gt;" style="text;html=1;strokeColor=none;fillColor=none;align=center;verticalAlign=middle;whiteSpace=wrap;rounded=0;strokeWidth=7;" parent="1" vertex="1">
          <mxGeometry x="153" y="278" width="60" height="30" as="geometry" />
        </mxCell>
        <mxCell id="SLHuEtTYFkW_0ceZfKXF-20" value="&lt;font style=&quot;font-size: 18px&quot;&gt;Sync Cluster&lt;/font&gt;" style="text;html=1;strokeColor=none;fillColor=none;align=center;verticalAlign=middle;whiteSpace=wrap;rounded=0;strokeWidth=7;" parent="1" vertex="1">
          <mxGeometry x="445" y="280" width="60" height="30" as="geometry" />
        </mxCell>
        <mxCell id="SLHuEtTYFkW_0ceZfKXF-21" value="&lt;font color=&quot;#006600&quot;&gt;Argo CD Is capable of managing a single namespace or whole cluster &lt;/font&gt;" style="text;html=1;strokeColor=none;fillColor=none;align=center;verticalAlign=middle;whiteSpace=wrap;rounded=0;fontSize=18;" parent="1" vertex="1">
          <mxGeometry x="372" y="678" width="285" height="46" as="geometry" />
        </mxCell>
        <mxCell id="SLHuEtTYFkW_0ceZfKXF-22" value="&lt;div&gt;&lt;font style=&quot;font-size: 18px&quot; color=&quot;#000099&quot;&gt;Argo CD Is capable of managing a&lt;/font&gt;&lt;/div&gt;&lt;div&gt;&lt;font style=&quot;font-size: 18px&quot; color=&quot;#000099&quot;&gt;single cluster or multiple clusters &lt;/font&gt;&lt;/div&gt;" style="text;whiteSpace=wrap;html=1;fontSize=18;" parent="1" vertex="1">
          <mxGeometry x="43.5" y="721" width="295" height="58" as="geometry" />
        </mxCell>
        <mxCell id="SLHuEtTYFkW_0ceZfKXF-23" value="" style="editableCssRules=.*;shape=image;verticalLabelPosition=bottom;labelBackgroundColor=#ffffff;verticalAlign=top;aspect=fixed;imageAspect=0;image=data:image/svg+xml,PHN2ZyB4bWxucz0iaHR0cDovL3d3dy53My5vcmcvMjAwMC9zdmciIHhtbG5zOnY9Imh0dHBzOi8vdmVjdGEuaW8vbmFubyIgd2lkdGg9IjcwMi44NDYzMTM0NzY1NjI1IiBoZWlnaHQ9IjY4MS45NjcxMDIwNTA3ODEyIiB2aWV3Qm94PSIxMC4wMDEwMjYxNTM1NjQ0NTMgMTAuMDAwOTMzNjQ3MTU1NzYyIDcwMi44NDYzMTM0NzY1NjI1IDY4MS45NjcxMDIwNTA3ODEyIj4mI3hhOwk8c3R5bGUgdHlwZT0idGV4dC9jc3MiPiYjeGE7CS5zdDB7ZmlsbDojMzI2Y2U1O30mI3hhOwkuc3Qxe2ZpbGw6I2ZmZjt9JiN4YTsJPC9zdHlsZT4mI3hhOwk8cGF0aCBjbGFzcz0ic3QwIiBkPSJNMzU4Ljk4NyAxMC4wNmMtNi4yMTMuMzEzLTEyLjMwMSAxLjg1NC0xNy45MDYgNC41MzFMOTYuNzM3IDEzMS4zNDJjLTEyLjgxMSA2LjExOC0yMi4xMTYgMTcuNjg5LTI1LjI4MSAzMS40MzhsLTYwLjI4MSAyNjIuMjVjLTIuODEyIDEyLjIwNy0uNTI0IDI1LjAyNCA2LjM0NCAzNS41MzFhNDYuMzUgNDYuMzUgMCAwIDAgMi42NTYgMy42ODhsMTY5LjEyNSAyMTAuMjgxYzguODY4IDExLjAyMiAyMi4zMTMgMTcuNDQgMzYuNTMxIDE3LjQzOGwyNzEuMjE5LS4wNjJjMTQuMjEyLjAxIDI3LjY1Ny02LjM5NiAzNi41MzEtMTcuNDA2bDE2OS4wNjMtMjEwLjMxM2M4Ljg3My0xMS4wMjggMTIuMTk3LTI1LjQ2NCA5LjAzMS0zOS4yMTlsLTYwLjM3NS0yNjIuMjVjLTMuMTY1LTEzLjc0OC0xMi40Ny0yNS4zMTktMjUuMjgxLTMxLjQzN0wzODEuNjQzIDE0LjU5MmMtNy4wNS0zLjM2OC0xNC44NDEtNC45MjYtMjIuNjU2LTQuNTMxeiIvPiYjeGE7CTxwYXRoIGNsYXNzPSJzdDEgc3QyIiBkPSJNMzYxLjQwOCA5OS4zMDhjLTguMDc3LjAwMS0xNC42MjYgNy4yNzYtMTQuNjI1IDE2LjI1IDAgLjEzOC4wMjguMjY5LjAzMS40MDYtLjAxMiAxLjIxOS0uMDcxIDIuNjg4LS4wMzEgMy43NS4xOTMgNS4xNzYgMS4zMjEgOS4xMzcgMiAxMy45MDYgMS4yMyAxMC4yMDcgMi4yNjEgMTguNjY3IDEuNjI1IDI2LjUzMS0uNjE5IDIuOTY1LTIuODAzIDUuNjc3LTQuNzUgNy41NjNsLS4zNDQgNi4xODhjLTguNzc3LjcyNy0xNy42MTIgMi4wNTktMjYuNDM3IDQuMDYzLTM3Ljk3NSA4LjYyMi03MC42NyAyOC4xODMtOTUuNTYyIDU0LjU5NC0xLjYxNS0xLjEwMi00LjQ0MS0zLjEyOS01LjI4MS0zLjc1LTIuNjExLjM1My01LjI1IDEuMTU4LTguNjg3LS44NDQtNi41NDUtNC40MDYtMTIuNTA2LTEwLjQ4Ny0xOS43MTktMTcuODEyLTMuMzA1LTMuNTA0LTUuNjk4LTYuODQxLTkuNjI1LTEwLjIxOS0uODkyLS43NjctMi4yNTMtMS44MDUtMy4yNS0yLjU5NC0zLjA3LTIuNDQ4LTYuNjkxLTMuNzI0LTEwLjE4Ny0zLjg0NC00LjQ5Ni0uMTU0LTguODI0IDEuNjA0LTExLjY1NiA1LjE1Ni01LjAzNSA2LjMxNS0zLjQyMyAxNS45NjggMy41OTQgMjEuNTYzLjA3MS4wNTcuMTQ3LjEwMS4yMTkuMTU2Ljk2NC43ODIgMi4xNDUgMS43ODMgMy4wMzEgMi40MzggNC4xNjcgMy4wNzcgNy45NzMgNC42NTEgMTIuMTI1IDcuMDk0IDguNzQ3IDUuNDAyIDE1Ljk5OCA5Ljg4MSAyMS43NSAxNS4yODEgMi4yNDYgMi4zOTQgMi42MzkgNi42MTMgMi45MzggOC40MzhsNC42ODggNC4xODhjLTI1LjA5MyAzNy43NjQtMzYuNzA3IDg0LjQwOS0yOS44NDQgMTMxLjkzOGwtNi4xMjUgMS43ODFjLTEuNjE0IDIuMDg1LTMuODk1IDUuMzY1LTYuMjgxIDYuMzQ0LTcuNTI1IDIuMzctMTUuOTk0IDMuMjQxLTI2LjIxOSA0LjMxMy00LjguMzk5LTguOTQyLjE2MS0xNC4wMzEgMS4xMjUtMS4xMi4yMTItMi42ODEuNjE5LTMuOTA2LjkwNi0uMDQzLjAwOS0uMDgyLjAyMi0uMTI1LjAzMS0uMDY3LjAxNS0uMTU1LjA0OC0uMjE5LjA2My04LjYyIDIuMDgzLTE0LjE1OCAxMC4wMDYtMTIuMzc1IDE3LjgxM3MxMC4yMDMgMTIuNTU3IDE4Ljg3NSAxMC42ODhjLjA2My0uMDE0LjE1NC0uMDE3LjIxOS0uMDMxLjA5OC0uMDIyLjE4NC0uMDcuMjgxLS4wOTQgMS4yMDktLjI2NSAyLjcyNC0uNTYxIDMuNzgxLS44NDQgNS4wMDMtMS4zNCA4LjYyNy0zLjMwOCAxMy4xMjUtNS4wMzEgOS42NzctMy40NzEgMTcuNjkyLTYuMzcgMjUuNS03LjUgMy4yNjEtLjI1NSA2LjY5NyAyLjAxMiA4LjQwNiAyLjk2OWw2LjM3NS0xLjA5NGMxNC42NyA0NS40ODMgNDUuNDE0IDgyLjI0NSA4NC4zNDQgMTA1LjMxMmwtMi42NTYgNi4zNzVjLjk1NyAyLjQ3NSAyLjAxMyA1LjgyNSAxLjMgOC4yNjktMi44MzkgNy4zNjEtNy43MDEgMTUuMTMxLTEzLjIzOCAyMy43OTMtMi42ODEgNC4wMDItNS40MjUgNy4xMDgtNy44NDQgMTEuNjg4LS41NzkgMS4wOTYtMS4zMTYgMi43NzktMS44NzUgMy45MzgtMy43NTkgOC4wNDItMS4wMDIgMTcuMzA1IDYuMjE5IDIwLjc4MSA3LjI2NiAzLjQ5OCAxNi4yODQtLjE5MSAyMC4xODctOC4yNS4wMDYtLjAxMS4wMjYtLjAyLjAzMS0uMDMxcy0uMDA0LS4wMjMgMC0uMDMxYy41NTYtMS4xNDMgMS4zNDQtMi42NDQgMS44MTMtMy43MTkgMi4wNzItNC43NDcgMi43NjItOC44MTUgNC4yMTktMTMuNDA2IDMuODctOS43MiA1Ljk5Ni0xOS45MTkgMTEuMzIzLTI2LjI3NCAxLjQ1OS0xLjc0IDMuODM3LTIuNDA5IDYuMzAyLTMuMDdsMy4zMTMtNmMzMy45MzggMTMuMDI3IDcxLjkyNyAxNi41MjIgMTA5Ljg3NSA3LjkwNmExODkuNzcgMTg5Ljc3IDAgMCAwIDI1LjA5NC03LjU2MmwzLjEyNSA1LjYyNWMyLjUwNi44MTUgNS4yNCAxLjIzNiA3LjQ2OSA0LjUzMSAzLjk4NSA2LjgwOSA2LjcxMSAxNC44NjQgMTAuMDMxIDI0LjU5NCAxLjQ1NyA0LjU5MSAyLjE3OCA4LjY1OSA0LjI1IDEzLjQwNi40NzIgMS4wODIgMS4yNTYgMi42MDUgMS44MTMgMy43NSAzLjg5NSA4LjA4NSAxMi45NDIgMTEuNzg3IDIwLjIxOSA4LjI4MSA3LjIxOS0zLjQ3OCA5Ljk4LTEyLjc0IDYuMjE5LTIwLjc4MWwtMS45MDYtMy45MzdjLTIuNDE5LTQuNTgtNS4xNjMtNy42NTQtNy44NDQtMTEuNjU2LTUuNTM3LTguNjYyLTEwLjEzLTE1Ljg1OC0xMi45NjktMjMuMjE5LTEuMTg3LTMuNzk3LjItNi4xNTggMS4xMjUtOC42MjUtLjU1NC0uNjM1LTEuNzM5LTQuMjItMi40MzctNS45MDYgNDAuNDU3LTIzLjg4OCA3MC4yOTktNjIuMDIxIDg0LjMxMy0xMDYuMDYyIDEuODkyLjI5NyA1LjE4Mi44NzkgNi4yNSAxLjA5NCAyLjItMS40NTEgNC4yMjItMy4zNDQgOC4xODgtMy4wMzEgNy44MDggMS4xMjkgMTUuODIzIDQuMDMgMjUuNSA3LjUgNC40OTggMS43MjMgOC4xMjIgMy43MjMgMTMuMTI1IDUuMDYzIDEuMDU3LjI4MyAyLjU3Mi41NDcgMy43ODEuODEzLjA5Ny4wMjQuMTgzLjA3MS4yODEuMDk0LjA2NS4wMTUuMTU2LjAxNy4yMTkuMDMxIDguNjcyIDEuODY3IDE3LjA5NC0yLjg3OSAxOC44NzUtMTAuNjg3cy0zLjc1NC0xNS43MzItMTIuMzc1LTE3LjgxMmMtMS4yNTQtLjI4NS0zLjAzMi0uNzY5LTQuMjUtMS01LjA4OS0uOTY0LTkuMjMxLS43MjYtMTQuMDMxLTEuMTI1LTEwLjIyNS0xLjA3MS0xOC42OTMtMS45NDMtMjYuMjE5LTQuMzEyLTMuMDY4LTEuMTktNS4yNTEtNC44NDEtNi4zMTMtNi4zNDRsLTUuOTA2LTEuNzE5YzMuMDYyLTIyLjE1NCAyLjIzNy00NS4yMTEtMy4wNjItNjguMjgxLTUuMzQ4LTIzLjI4NS0xNC44LTQ0LjU4MS0yNy40MDYtNjMuMzQ0bDUuMTg4LTQuNjU2Yy4yMzctMi42MjQuMDMzLTUuMzc2IDIuNzUtOC4yODEgNS43NTEtNS40MDEgMTMuMDAzLTkuODc5IDIxLjc1LTE1LjI4MSA0LjE1Mi0yLjQ0MyA3Ljk5LTQuMDE3IDEyLjE1Ni03LjA5NC45NDItLjY5NiAyLjIyOS0xLjc5OCAzLjIxOS0yLjU5NCA3LjAxNS01LjU5NiA4LjYzMS0xNS4yNDggMy41OTQtMjEuNTYycy0xNC43OTctNi45MDktMjEuODEyLTEuMzEyYy0uOTk5Ljc5MS0yLjM1NCAxLjgyMy0zLjI1IDIuNTk0LTMuOTI3IDMuMzc4LTYuMzUxIDYuNzE0LTkuNjU2IDEwLjIxOS03LjIxMiA3LjMyNi0xMy4xNzQgMTMuNDM4LTE5LjcxOSAxNy44NDQtMi44MzYgMS42NTEtNi45OSAxLjA4LTguODc1Ljk2OWwtNS41NjIgMy45NjljLTMxLjcxOS0zMy4yNjEtNzQuOTA1LTU0LjUyNS0xMjEuNDA2LTU4LjY1NmwtLjM0NC02LjUzMWMtMS45MDQtMS44MjItNC4yMDMtMy4zNzctNC43ODEtNy4zMTItLjYzNi03Ljg2NC40MjYtMTYuMzI1IDEuNjU2LTI2LjUzMS42NzktNC43NjkgMS44MDctOC43MyAyLTEzLjkwNi4wNDQtMS4xNzctLjAyNi0yLjg4NC0uMDMxLTQuMTU2LS4wMDEtOC45NzQtNi41NDgtMTYuMjUxLTE0LjYyNS0xNi4yNXptLTE4LjMxMiAxMTMuNDM4bC00LjM0NCA3Ni43MTktLjMxMi4xNTZjLS4yOTEgNi44NjMtNS45NCAxMi4zNDQtMTIuODc1IDEyLjM0NGExMi44MiAxMi44MiAwIDAgMS03LjU5NC0yLjQ2OWwtLjEyNS4wNjMtNjIuOTA2LTQ0LjU5NGMxOS4zMzQtMTkuMDExIDQ0LjA2My0zMy4wNiA3Mi41NjItMzkuNTMxIDUuMjA2LTEuMTgyIDEwLjQxLTIuMDU5IDE1LjU5NC0yLjY4N3ptMzYuNjU2IDBjMzMuMjczIDQuMDkyIDY0LjA0NSAxOS4xNTkgODcuNjI1IDQyLjI1bC02Mi41IDQ0LjMxMy0uMjE5LS4wOTRhMTIuOTEgMTIuOTEgMCAwIDEtMTcuNjg3LTIuMzc1Yy0xLjc3MS0yLjIyMS0yLjcwMS00LjgzMi0yLjgxMi03LjQ2OWwtLjA2Mi0uMDMxek0yMzIuMTI2IDI4My42Mmw1Ny40MzcgNTEuMzc1LS4wNjIuMzEzYTEyLjg4IDEyLjg4IDAgMCAxIDEuNjI1IDE3Ljc1IDEyLjg5IDEyLjg5IDAgMCAxLTYuNjg3IDQuNDA2bC0uMDYyLjI1LTczLjYyNSAyMS4yNWMtMy43NDctMzQuMjY1IDQuMzI5LTY3LjU3NCAyMS4zNzUtOTUuMzQ0em0yNTguMTU2LjAzMWM4LjUzNCAxMy44MzMgMTQuOTk3IDI5LjI4MiAxOC44NDQgNDYuMDMxIDMuODAxIDE2LjU0OCA0Ljc1NSAzMy4wNjcgMy4xODggNDkuMDMxbC03NC0yMS4zMTItLjA2Mi0uMzEyYy02LjYyNy0xLjgxMS0xMC42OTktOC41NTItOS4xNTYtMTUuMzEyLjYzMi0yLjc3IDIuMTAyLTUuMTEzIDQuMDk0LTYuODQ0bC0uMDMxLS4xNTYgNTcuMTI1LTUxLjEyNXptLTE0MC42NTYgNTUuMzEzaDIzLjUzMWwxNC42MjUgMTguMjgxLTUuMjUgMjIuODEzLTIxLjEyNSAxMC4xNTYtMjEuMTg3LTEwLjE4Ny01LjI1LTIyLjgxMnptNzUuNDM4IDYyLjU2M2ExMi44MyAxMi44MyAwIDAgMSAyLjk2OS4yMTlsLjEyNS0uMTU2IDc2LjE1NiAxMi44NzVjLTExLjE0NiAzMS4zMTMtMzIuNDczIDU4LjQ0LTYwLjk2OSA3Ni41OTRsLTI5LjU2Mi03MS40MDYuMDk0LS4xMjVjLTIuNzE2LTYuMzEuMDAyLTEzLjcxIDYuMjUtMTYuNzE5IDEuNi0uNzcgMy4yNzEtMS4xOTcgNC45MzgtMS4yODF6bS0xMjcuOTA2LjMxM2ExMi45IDEyLjkgMCAwIDEgMTIuMzc1IDEwLjAzMSAxMi43NyAxMi43NyAwIDAgMS0uNzE5IDcuOTM4bC4yMTkuMjgxLTI5LjI1IDcwLjY4OGMtMjcuMzQ3LTE3LjU0OS00OS4xMjktNDMuODI0LTYwLjc4MS03Ni4wNjJsNzUuNS0xMi44MTIuMTI1LjE1NmMuODQ1LS4xNTUgMS43MDEtLjIzIDIuNTMxLS4yMTl6bTYzLjc4MSAzMC45NjljMi4wMjQtLjA3NCA0LjA3OS4zNDEgNi4wMzEgMS4yODEgMi41NiAxLjIzMyA0LjUzNyAzLjE3MyA1Ljc4MSA1LjVoLjI4MWwzNy4yMTkgNjcuMjVjLTQuODMgMS42MTktOS43OTYgMy4wMDMtMTQuODc1IDQuMTU2LTI4LjQ2NSA2LjQ2My01Ni44MzkgNC41MDUtODIuNTMxLTQuMjVsMzcuMTI1LTY3LjEyNWguMDYzYTEyLjkxIDEyLjkxIDAgMCAxIDEwLjkwNi02LjgxMnoiIHN0cm9rZT0ibm9uZSIgc3Ryb2tlLXdpZHRoPSIuMjUiLz4mI3hhOzwvc3ZnPg==;fontColor=default;" parent="1" vertex="1">
          <mxGeometry x="626" y="278" width="76" height="72.2" as="geometry" />
        </mxCell>
        <mxCell id="SLHuEtTYFkW_0ceZfKXF-24" value="" style="editableCssRules=.*;shape=image;verticalLabelPosition=bottom;labelBackgroundColor=#ffffff;verticalAlign=top;aspect=fixed;imageAspect=0;image=data:image/svg+xml,PHN2ZyB4bWxucz0iaHR0cDovL3d3dy53My5vcmcvMjAwMC9zdmciIHhtbG5zOnY9Imh0dHBzOi8vdmVjdGEuaW8vbmFubyIgd2lkdGg9IjcwMi44NDYzMTM0NzY1NjI1IiBoZWlnaHQ9IjY4MS45NjcxMDIwNTA3ODEyIiB2aWV3Qm94PSIxMC4wMDEwMjYxNTM1NjQ0NTMgMTAuMDAwOTMzNjQ3MTU1NzYyIDcwMi44NDYzMTM0NzY1NjI1IDY4MS45NjcxMDIwNTA3ODEyIj4mI3hhOwk8c3R5bGUgdHlwZT0idGV4dC9jc3MiPiYjeGE7CS5zdDB7ZmlsbDojMzI2Y2U1O30mI3hhOwkuc3Qxe2ZpbGw6I2ZmZjt9JiN4YTsJPC9zdHlsZT4mI3hhOwk8cGF0aCBjbGFzcz0ic3QwIiBkPSJNMzU4Ljk4NyAxMC4wNmMtNi4yMTMuMzEzLTEyLjMwMSAxLjg1NC0xNy45MDYgNC41MzFMOTYuNzM3IDEzMS4zNDJjLTEyLjgxMSA2LjExOC0yMi4xMTYgMTcuNjg5LTI1LjI4MSAzMS40MzhsLTYwLjI4MSAyNjIuMjVjLTIuODEyIDEyLjIwNy0uNTI0IDI1LjAyNCA2LjM0NCAzNS41MzFhNDYuMzUgNDYuMzUgMCAwIDAgMi42NTYgMy42ODhsMTY5LjEyNSAyMTAuMjgxYzguODY4IDExLjAyMiAyMi4zMTMgMTcuNDQgMzYuNTMxIDE3LjQzOGwyNzEuMjE5LS4wNjJjMTQuMjEyLjAxIDI3LjY1Ny02LjM5NiAzNi41MzEtMTcuNDA2bDE2OS4wNjMtMjEwLjMxM2M4Ljg3My0xMS4wMjggMTIuMTk3LTI1LjQ2NCA5LjAzMS0zOS4yMTlsLTYwLjM3NS0yNjIuMjVjLTMuMTY1LTEzLjc0OC0xMi40Ny0yNS4zMTktMjUuMjgxLTMxLjQzN0wzODEuNjQzIDE0LjU5MmMtNy4wNS0zLjM2OC0xNC44NDEtNC45MjYtMjIuNjU2LTQuNTMxeiIvPiYjeGE7CTxwYXRoIGNsYXNzPSJzdDEgc3QyIiBkPSJNMzYxLjQwOCA5OS4zMDhjLTguMDc3LjAwMS0xNC42MjYgNy4yNzYtMTQuNjI1IDE2LjI1IDAgLjEzOC4wMjguMjY5LjAzMS40MDYtLjAxMiAxLjIxOS0uMDcxIDIuNjg4LS4wMzEgMy43NS4xOTMgNS4xNzYgMS4zMjEgOS4xMzcgMiAxMy45MDYgMS4yMyAxMC4yMDcgMi4yNjEgMTguNjY3IDEuNjI1IDI2LjUzMS0uNjE5IDIuOTY1LTIuODAzIDUuNjc3LTQuNzUgNy41NjNsLS4zNDQgNi4xODhjLTguNzc3LjcyNy0xNy42MTIgMi4wNTktMjYuNDM3IDQuMDYzLTM3Ljk3NSA4LjYyMi03MC42NyAyOC4xODMtOTUuNTYyIDU0LjU5NC0xLjYxNS0xLjEwMi00LjQ0MS0zLjEyOS01LjI4MS0zLjc1LTIuNjExLjM1My01LjI1IDEuMTU4LTguNjg3LS44NDQtNi41NDUtNC40MDYtMTIuNTA2LTEwLjQ4Ny0xOS43MTktMTcuODEyLTMuMzA1LTMuNTA0LTUuNjk4LTYuODQxLTkuNjI1LTEwLjIxOS0uODkyLS43NjctMi4yNTMtMS44MDUtMy4yNS0yLjU5NC0zLjA3LTIuNDQ4LTYuNjkxLTMuNzI0LTEwLjE4Ny0zLjg0NC00LjQ5Ni0uMTU0LTguODI0IDEuNjA0LTExLjY1NiA1LjE1Ni01LjAzNSA2LjMxNS0zLjQyMyAxNS45NjggMy41OTQgMjEuNTYzLjA3MS4wNTcuMTQ3LjEwMS4yMTkuMTU2Ljk2NC43ODIgMi4xNDUgMS43ODMgMy4wMzEgMi40MzggNC4xNjcgMy4wNzcgNy45NzMgNC42NTEgMTIuMTI1IDcuMDk0IDguNzQ3IDUuNDAyIDE1Ljk5OCA5Ljg4MSAyMS43NSAxNS4yODEgMi4yNDYgMi4zOTQgMi42MzkgNi42MTMgMi45MzggOC40MzhsNC42ODggNC4xODhjLTI1LjA5MyAzNy43NjQtMzYuNzA3IDg0LjQwOS0yOS44NDQgMTMxLjkzOGwtNi4xMjUgMS43ODFjLTEuNjE0IDIuMDg1LTMuODk1IDUuMzY1LTYuMjgxIDYuMzQ0LTcuNTI1IDIuMzctMTUuOTk0IDMuMjQxLTI2LjIxOSA0LjMxMy00LjguMzk5LTguOTQyLjE2MS0xNC4wMzEgMS4xMjUtMS4xMi4yMTItMi42ODEuNjE5LTMuOTA2LjkwNi0uMDQzLjAwOS0uMDgyLjAyMi0uMTI1LjAzMS0uMDY3LjAxNS0uMTU1LjA0OC0uMjE5LjA2My04LjYyIDIuMDgzLTE0LjE1OCAxMC4wMDYtMTIuMzc1IDE3LjgxM3MxMC4yMDMgMTIuNTU3IDE4Ljg3NSAxMC42ODhjLjA2My0uMDE0LjE1NC0uMDE3LjIxOS0uMDMxLjA5OC0uMDIyLjE4NC0uMDcuMjgxLS4wOTQgMS4yMDktLjI2NSAyLjcyNC0uNTYxIDMuNzgxLS44NDQgNS4wMDMtMS4zNCA4LjYyNy0zLjMwOCAxMy4xMjUtNS4wMzEgOS42NzctMy40NzEgMTcuNjkyLTYuMzcgMjUuNS03LjUgMy4yNjEtLjI1NSA2LjY5NyAyLjAxMiA4LjQwNiAyLjk2OWw2LjM3NS0xLjA5NGMxNC42NyA0NS40ODMgNDUuNDE0IDgyLjI0NSA4NC4zNDQgMTA1LjMxMmwtMi42NTYgNi4zNzVjLjk1NyAyLjQ3NSAyLjAxMyA1LjgyNSAxLjMgOC4yNjktMi44MzkgNy4zNjEtNy43MDEgMTUuMTMxLTEzLjIzOCAyMy43OTMtMi42ODEgNC4wMDItNS40MjUgNy4xMDgtNy44NDQgMTEuNjg4LS41NzkgMS4wOTYtMS4zMTYgMi43NzktMS44NzUgMy45MzgtMy43NTkgOC4wNDItMS4wMDIgMTcuMzA1IDYuMjE5IDIwLjc4MSA3LjI2NiAzLjQ5OCAxNi4yODQtLjE5MSAyMC4xODctOC4yNS4wMDYtLjAxMS4wMjYtLjAyLjAzMS0uMDMxcy0uMDA0LS4wMjMgMC0uMDMxYy41NTYtMS4xNDMgMS4zNDQtMi42NDQgMS44MTMtMy43MTkgMi4wNzItNC43NDcgMi43NjItOC44MTUgNC4yMTktMTMuNDA2IDMuODctOS43MiA1Ljk5Ni0xOS45MTkgMTEuMzIzLTI2LjI3NCAxLjQ1OS0xLjc0IDMuODM3LTIuNDA5IDYuMzAyLTMuMDdsMy4zMTMtNmMzMy45MzggMTMuMDI3IDcxLjkyNyAxNi41MjIgMTA5Ljg3NSA3LjkwNmExODkuNzcgMTg5Ljc3IDAgMCAwIDI1LjA5NC03LjU2MmwzLjEyNSA1LjYyNWMyLjUwNi44MTUgNS4yNCAxLjIzNiA3LjQ2OSA0LjUzMSAzLjk4NSA2LjgwOSA2LjcxMSAxNC44NjQgMTAuMDMxIDI0LjU5NCAxLjQ1NyA0LjU5MSAyLjE3OCA4LjY1OSA0LjI1IDEzLjQwNi40NzIgMS4wODIgMS4yNTYgMi42MDUgMS44MTMgMy43NSAzLjg5NSA4LjA4NSAxMi45NDIgMTEuNzg3IDIwLjIxOSA4LjI4MSA3LjIxOS0zLjQ3OCA5Ljk4LTEyLjc0IDYuMjE5LTIwLjc4MWwtMS45MDYtMy45MzdjLTIuNDE5LTQuNTgtNS4xNjMtNy42NTQtNy44NDQtMTEuNjU2LTUuNTM3LTguNjYyLTEwLjEzLTE1Ljg1OC0xMi45NjktMjMuMjE5LTEuMTg3LTMuNzk3LjItNi4xNTggMS4xMjUtOC42MjUtLjU1NC0uNjM1LTEuNzM5LTQuMjItMi40MzctNS45MDYgNDAuNDU3LTIzLjg4OCA3MC4yOTktNjIuMDIxIDg0LjMxMy0xMDYuMDYyIDEuODkyLjI5NyA1LjE4Mi44NzkgNi4yNSAxLjA5NCAyLjItMS40NTEgNC4yMjItMy4zNDQgOC4xODgtMy4wMzEgNy44MDggMS4xMjkgMTUuODIzIDQuMDMgMjUuNSA3LjUgNC40OTggMS43MjMgOC4xMjIgMy43MjMgMTMuMTI1IDUuMDYzIDEuMDU3LjI4MyAyLjU3Mi41NDcgMy43ODEuODEzLjA5Ny4wMjQuMTgzLjA3MS4yODEuMDk0LjA2NS4wMTUuMTU2LjAxNy4yMTkuMDMxIDguNjcyIDEuODY3IDE3LjA5NC0yLjg3OSAxOC44NzUtMTAuNjg3cy0zLjc1NC0xNS43MzItMTIuMzc1LTE3LjgxMmMtMS4yNTQtLjI4NS0zLjAzMi0uNzY5LTQuMjUtMS01LjA4OS0uOTY0LTkuMjMxLS43MjYtMTQuMDMxLTEuMTI1LTEwLjIyNS0xLjA3MS0xOC42OTMtMS45NDMtMjYuMjE5LTQuMzEyLTMuMDY4LTEuMTktNS4yNTEtNC44NDEtNi4zMTMtNi4zNDRsLTUuOTA2LTEuNzE5YzMuMDYyLTIyLjE1NCAyLjIzNy00NS4yMTEtMy4wNjItNjguMjgxLTUuMzQ4LTIzLjI4NS0xNC44LTQ0LjU4MS0yNy40MDYtNjMuMzQ0bDUuMTg4LTQuNjU2Yy4yMzctMi42MjQuMDMzLTUuMzc2IDIuNzUtOC4yODEgNS43NTEtNS40MDEgMTMuMDAzLTkuODc5IDIxLjc1LTE1LjI4MSA0LjE1Mi0yLjQ0MyA3Ljk5LTQuMDE3IDEyLjE1Ni03LjA5NC45NDItLjY5NiAyLjIyOS0xLjc5OCAzLjIxOS0yLjU5NCA3LjAxNS01LjU5NiA4LjYzMS0xNS4yNDggMy41OTQtMjEuNTYycy0xNC43OTctNi45MDktMjEuODEyLTEuMzEyYy0uOTk5Ljc5MS0yLjM1NCAxLjgyMy0zLjI1IDIuNTk0LTMuOTI3IDMuMzc4LTYuMzUxIDYuNzE0LTkuNjU2IDEwLjIxOS03LjIxMiA3LjMyNi0xMy4xNzQgMTMuNDM4LTE5LjcxOSAxNy44NDQtMi44MzYgMS42NTEtNi45OSAxLjA4LTguODc1Ljk2OWwtNS41NjIgMy45NjljLTMxLjcxOS0zMy4yNjEtNzQuOTA1LTU0LjUyNS0xMjEuNDA2LTU4LjY1NmwtLjM0NC02LjUzMWMtMS45MDQtMS44MjItNC4yMDMtMy4zNzctNC43ODEtNy4zMTItLjYzNi03Ljg2NC40MjYtMTYuMzI1IDEuNjU2LTI2LjUzMS42NzktNC43NjkgMS44MDctOC43MyAyLTEzLjkwNi4wNDQtMS4xNzctLjAyNi0yLjg4NC0uMDMxLTQuMTU2LS4wMDEtOC45NzQtNi41NDgtMTYuMjUxLTE0LjYyNS0xNi4yNXptLTE4LjMxMiAxMTMuNDM4bC00LjM0NCA3Ni43MTktLjMxMi4xNTZjLS4yOTEgNi44NjMtNS45NCAxMi4zNDQtMTIuODc1IDEyLjM0NGExMi44MiAxMi44MiAwIDAgMS03LjU5NC0yLjQ2OWwtLjEyNS4wNjMtNjIuOTA2LTQ0LjU5NGMxOS4zMzQtMTkuMDExIDQ0LjA2My0zMy4wNiA3Mi41NjItMzkuNTMxIDUuMjA2LTEuMTgyIDEwLjQxLTIuMDU5IDE1LjU5NC0yLjY4N3ptMzYuNjU2IDBjMzMuMjczIDQuMDkyIDY0LjA0NSAxOS4xNTkgODcuNjI1IDQyLjI1bC02Mi41IDQ0LjMxMy0uMjE5LS4wOTRhMTIuOTEgMTIuOTEgMCAwIDEtMTcuNjg3LTIuMzc1Yy0xLjc3MS0yLjIyMS0yLjcwMS00LjgzMi0yLjgxMi03LjQ2OWwtLjA2Mi0uMDMxek0yMzIuMTI2IDI4My42Mmw1Ny40MzcgNTEuMzc1LS4wNjIuMzEzYTEyLjg4IDEyLjg4IDAgMCAxIDEuNjI1IDE3Ljc1IDEyLjg5IDEyLjg5IDAgMCAxLTYuNjg3IDQuNDA2bC0uMDYyLjI1LTczLjYyNSAyMS4yNWMtMy43NDctMzQuMjY1IDQuMzI5LTY3LjU3NCAyMS4zNzUtOTUuMzQ0em0yNTguMTU2LjAzMWM4LjUzNCAxMy44MzMgMTQuOTk3IDI5LjI4MiAxOC44NDQgNDYuMDMxIDMuODAxIDE2LjU0OCA0Ljc1NSAzMy4wNjcgMy4xODggNDkuMDMxbC03NC0yMS4zMTItLjA2Mi0uMzEyYy02LjYyNy0xLjgxMS0xMC42OTktOC41NTItOS4xNTYtMTUuMzEyLjYzMi0yLjc3IDIuMTAyLTUuMTEzIDQuMDk0LTYuODQ0bC0uMDMxLS4xNTYgNTcuMTI1LTUxLjEyNXptLTE0MC42NTYgNTUuMzEzaDIzLjUzMWwxNC42MjUgMTguMjgxLTUuMjUgMjIuODEzLTIxLjEyNSAxMC4xNTYtMjEuMTg3LTEwLjE4Ny01LjI1LTIyLjgxMnptNzUuNDM4IDYyLjU2M2ExMi44MyAxMi44MyAwIDAgMSAyLjk2OS4yMTlsLjEyNS0uMTU2IDc2LjE1NiAxMi44NzVjLTExLjE0NiAzMS4zMTMtMzIuNDczIDU4LjQ0LTYwLjk2OSA3Ni41OTRsLTI5LjU2Mi03MS40MDYuMDk0LS4xMjVjLTIuNzE2LTYuMzEuMDAyLTEzLjcxIDYuMjUtMTYuNzE5IDEuNi0uNzcgMy4yNzEtMS4xOTcgNC45MzgtMS4yODF6bS0xMjcuOTA2LjMxM2ExMi45IDEyLjkgMCAwIDEgMTIuMzc1IDEwLjAzMSAxMi43NyAxMi43NyAwIDAgMS0uNzE5IDcuOTM4bC4yMTkuMjgxLTI5LjI1IDcwLjY4OGMtMjcuMzQ3LTE3LjU0OS00OS4xMjktNDMuODI0LTYwLjc4MS03Ni4wNjJsNzUuNS0xMi44MTIuMTI1LjE1NmMuODQ1LS4xNTUgMS43MDEtLjIzIDIuNTMxLS4yMTl6bTYzLjc4MSAzMC45NjljMi4wMjQtLjA3NCA0LjA3OS4zNDEgNi4wMzEgMS4yODEgMi41NiAxLjIzMyA0LjUzNyAzLjE3MyA1Ljc4MSA1LjVoLjI4MWwzNy4yMTkgNjcuMjVjLTQuODMgMS42MTktOS43OTYgMy4wMDMtMTQuODc1IDQuMTU2LTI4LjQ2NSA2LjQ2My01Ni44MzkgNC41MDUtODIuNTMxLTQuMjVsMzcuMTI1LTY3LjEyNWguMDYzYTEyLjkxIDEyLjkxIDAgMCAxIDEwLjkwNi02LjgxMnoiIHN0cm9rZT0ibm9uZSIgc3Ryb2tlLXdpZHRoPSIuMjUiLz4mI3hhOzwvc3ZnPg==;fontColor=default;" parent="1" vertex="1">
          <mxGeometry x="548" y="339" width="76" height="72.2" as="geometry" />
        </mxCell>
        <mxCell id="SLHuEtTYFkW_0ceZfKXF-25" value="&lt;h1&gt;&lt;font color=&quot;#FF8000&quot;&gt;GitOps using Argo CD&lt;br&gt;&lt;/font&gt;&lt;/h1&gt;" style="text;html=1;strokeColor=none;fillColor=none;spacing=5;spacingTop=-20;whiteSpace=wrap;overflow=hidden;rounded=0;fontSize=18;fontColor=#000099;" parent="1" vertex="1">
          <mxGeometry x="220" y="73" width="614" height="71" as="geometry" />
        </mxCell>
        <mxCell id="SLHuEtTYFkW_0ceZfKXF-27" value="&lt;font color=&quot;#FF8000&quot;&gt;GitOps works by using Git as a single source of truth for declarative infrastructure and applications.&lt;/font&gt;" style="text;html=1;strokeColor=none;fillColor=none;align=center;verticalAlign=middle;whiteSpace=wrap;rounded=0;fontSize=18;" parent="1" vertex="1">
          <mxGeometry x="30" y="616" width="355" height="62" as="geometry" />
        </mxCell>
        <mxCell id="SLHuEtTYFkW_0ceZfKXF-28" value="&lt;font color=&quot;#CC0066&quot;&gt;Easy Installation using the install.yaml or Helm or Operator&lt;/font&gt;" style="text;whiteSpace=wrap;html=1;fontSize=18;" parent="1" vertex="1">
          <mxGeometry x="210" y="783" width="295" height="58" as="geometry" />
        </mxCell>
        <mxCell id="SLHuEtTYFkW_0ceZfKXF-29" value="&lt;font style=&quot;font-size: 38px&quot; color=&quot;#006600&quot;&gt;LIVE INSTALLATION WITH DEMO &lt;/font&gt;" style="rounded=1;whiteSpace=wrap;html=1;fontSize=18;fontColor=#CC0066;strokeWidth=7;" parent="1" vertex="1">
          <mxGeometry x="33" y="479" width="769" height="60" as="geometry" />
        </mxCell>
        <mxCell id="SLHuEtTYFkW_0ceZfKXF-31" value="&lt;font style=&quot;font-size: 24px&quot; color=&quot;#3333FF&quot;&gt;Kubernetes controller&lt;/font&gt;" style="text;html=1;strokeColor=none;fillColor=none;align=center;verticalAlign=middle;whiteSpace=wrap;rounded=0;fontSize=38;fontColor=#006600;" parent="1" vertex="1">
          <mxGeometry x="439" y="616" width="342" height="30" as="geometry" />
        </mxCell>
        <mxCell id="SLHuEtTYFkW_0ceZfKXF-32" value="&lt;font color=&quot;#FF8000&quot;&gt;Intergration with popular CI tools like Argo Workflows, Tekton, Jenkins and many&lt;/font&gt;" style="text;html=1;strokeColor=none;fillColor=none;align=center;verticalAlign=middle;whiteSpace=wrap;rounded=0;fontSize=18;" parent="1" vertex="1">
          <mxGeometry x="481" y="743" width="355" height="62" as="geometry" />
        </mxCell>
      </root>
    </mxGraphModel>
  </diagram>
  <diagram id="4RpvD7SZ4kqE0Mkxp4wz" name="Page-2">
    <mxGraphModel dx="1929" dy="909" grid="0" gridSize="10" guides="1" tooltips="1" connect="1" arrows="1" fold="1" page="1" pageScale="1" pageWidth="850" pageHeight="1100" math="0" shadow="0">
      <root>
        <mxCell id="0" />
        <mxCell id="1" parent="0" />
        <mxCell id="0fvPUERdMeRsX3zv_FZZ-1" value="&lt;h2 id=&quot;components&quot;&gt;&lt;font color=&quot;#000000&quot;&gt;Components&lt;/font&gt;&lt;/h2&gt;&lt;font color=&quot;#000000&quot;&gt;&lt;/font&gt;&lt;h3 id=&quot;api-server&quot;&gt;&lt;font color=&quot;#000000&quot;&gt;API Server&lt;/font&gt;&lt;/h3&gt;&lt;font color=&quot;#000000&quot;&gt;The API server is a gRPC/REST server which exposes the API consumed by the Web UI, CLI, and CI/CD &lt;/font&gt;&lt;br&gt;&lt;font color=&quot;#000000&quot;&gt;&lt;br&gt;&lt;/font&gt;&lt;h3 id=&quot;repository-server&quot;&gt;&lt;font color=&quot;#000000&quot;&gt;Repository Server&lt;/font&gt;&lt;/h3&gt;&lt;font color=&quot;#000000&quot;&gt;The repository server is an internal service which maintains a local cache of the Git repository&lt;/font&gt;&lt;font color=&quot;#000000&quot;&gt; holding the application manifests. It is responsible for generating and returning the Kubernetes&lt;/font&gt;&lt;font color=&quot;#000000&quot;&gt;&lt;br&gt;&lt;/font&gt;&lt;h3 id=&quot;application-controller&quot;&gt;&lt;font color=&quot;#000000&quot;&gt;Application Controller&lt;/font&gt;&lt;/h3&gt;&lt;font color=&quot;#000000&quot;&gt;The application controller is a Kubernetes controller which continuously monitors running&lt;/font&gt;&lt;br&gt;&lt;p&gt;&lt;font color=&quot;#000000&quot;&gt;applications and compares the current, live state against the desired target state (as specified in&lt;br&gt;the repo). &lt;br&gt;&lt;/font&gt;&lt;/p&gt;&lt;p&gt;&lt;font color=&quot;#000000&quot;&gt;It detects &lt;code&gt;OutOfSync&lt;/code&gt; application state and optionally takes corrective action. It&lt;br&gt;is responsible for invoking any user-defined hooks for lifecycle events (PreSync, Sync, PostSync)&lt;/font&gt;&lt;/p&gt;&lt;p style=&quot;font-size: 23px&quot;&gt;&lt;font style=&quot;font-size: 23px&quot; color=&quot;#000000&quot;&gt;&lt;b&gt;Dex&lt;/b&gt;&lt;br&gt;&lt;/font&gt;&lt;/p&gt;&lt;p style=&quot;font-size: 23px&quot;&gt;&lt;font style=&quot;font-size: 23px&quot; color=&quot;#000000&quot;&gt;Authentication and Authorization&lt;/font&gt;&lt;/p&gt;&lt;p style=&quot;font-size: 23px&quot;&gt;&lt;font style=&quot;font-size: 23px&quot; color=&quot;#000000&quot;&gt;&lt;br&gt;&lt;/font&gt;&lt;/p&gt;" style="text;whiteSpace=wrap;html=1;fontSize=19;fontColor=#FF8000;" vertex="1" parent="1">
          <mxGeometry x="8" y="35" width="758" height="1602" as="geometry" />
        </mxCell>
      </root>
    </mxGraphModel>
  </diagram>
  <diagram id="pWpfxukSy9Tg8HJy8T-4" name="Page-3">
    <mxGraphModel dx="1079" dy="909" grid="0" gridSize="10" guides="1" tooltips="1" connect="1" arrows="1" fold="1" page="1" pageScale="1" pageWidth="850" pageHeight="1100" math="0" shadow="0">
      <root>
        <mxCell id="0" />
        <mxCell id="1" parent="0" />
        <mxCell id="EiX3NgKDw8hrP0GXa-Qr-1" value="&lt;ul style=&quot;font-size: 19px&quot;&gt;&lt;li style=&quot;font-size: 19px&quot;&gt;&lt;strong style=&quot;font-size: 19px&quot;&gt;Application&lt;/strong&gt; A group of Kubernetes resources as defined by a manifest. This is a Custom Resource Definition (CRD).&lt;/li&gt;&lt;br style=&quot;font-size: 19px&quot;&gt;&lt;li style=&quot;font-size: 19px&quot;&gt;&lt;strong style=&quot;font-size: 19px&quot;&gt;Application source type&lt;/strong&gt; Which &lt;strong style=&quot;font-size: 19px&quot;&gt;Tool&lt;/strong&gt; is used to build the application.&lt;/li&gt;&lt;br style=&quot;font-size: 19px&quot;&gt;&lt;li style=&quot;font-size: 19px&quot;&gt;&lt;strong style=&quot;font-size: 19px&quot;&gt;Target state&lt;/strong&gt; The desired state of an application, as represented by files in a Git repository.&lt;/li&gt;&lt;br style=&quot;font-size: 19px&quot;&gt;&lt;li style=&quot;font-size: 19px&quot;&gt;&lt;strong style=&quot;font-size: 19px&quot;&gt;Live state&lt;/strong&gt; The live state of that application. What pods etc are deployed.&lt;/li&gt;&lt;br style=&quot;font-size: 19px&quot;&gt;&lt;li style=&quot;font-size: 19px&quot;&gt;&lt;strong style=&quot;font-size: 19px&quot;&gt;Sync status&lt;/strong&gt; Whether or not the live state matches the target state. Is the deployed application the same as Git says it should be?&lt;/li&gt;&lt;br style=&quot;font-size: 19px&quot;&gt;&lt;li style=&quot;font-size: 19px&quot;&gt;&lt;strong style=&quot;font-size: 19px&quot;&gt;Sync&lt;/strong&gt; The process of making an application move to its target state. E.g. by applying changes to a Kubernetes cluster.&lt;/li&gt;&lt;br style=&quot;font-size: 19px&quot;&gt;&lt;li style=&quot;font-size: 19px&quot;&gt;&lt;strong style=&quot;font-size: 19px&quot;&gt;Sync operation status&lt;/strong&gt; Whether or not a sync succeeded.&lt;/li&gt;&lt;br style=&quot;font-size: 19px&quot;&gt;&lt;br style=&quot;font-size: 19px&quot;&gt;&lt;/ul&gt;" style="text;whiteSpace=wrap;html=1;fontSize=19;fontColor=#FF8000;" vertex="1" parent="1">
          <mxGeometry x="928" y="13" width="540" height="1602" as="geometry" />
        </mxCell>
        <mxCell id="EiX3NgKDw8hrP0GXa-Qr-2" value="&lt;li style=&quot;font-size: 19px&quot;&gt;&lt;font color=&quot;#FF8000&quot;&gt;&lt;strong style=&quot;font-size: 19px&quot;&gt;Refresh&lt;/strong&gt; Compare the latest code in Git with the live state. Figure out what is different.&lt;/font&gt;&lt;/li&gt;&lt;font color=&quot;#FF8000&quot;&gt;&lt;br style=&quot;font-size: 19px&quot;&gt;&lt;/font&gt;&lt;li style=&quot;font-size: 19px&quot;&gt;&lt;font color=&quot;#FF8000&quot;&gt;&lt;strong style=&quot;font-size: 19px&quot;&gt;Health&lt;/strong&gt; The health of the application, is it running correctly? Can it serve requests?&lt;/font&gt;&lt;/li&gt;&lt;font color=&quot;#FF8000&quot;&gt;&lt;br style=&quot;font-size: 19px&quot;&gt;&lt;/font&gt;&lt;li style=&quot;font-size: 19px&quot;&gt;&lt;font color=&quot;#FF8000&quot;&gt;&lt;strong style=&quot;font-size: 19px&quot;&gt;Tool&lt;/strong&gt; A tool to create manifests from a directory of files. E.g. Kustomize or Ksonnet. See &lt;strong style=&quot;font-size: 19px&quot;&gt;Application Source Type&lt;/strong&gt;.&lt;/font&gt;&lt;/li&gt;&lt;font color=&quot;#FF8000&quot;&gt;&lt;br style=&quot;font-size: 19px&quot;&gt;&lt;/font&gt;&lt;li style=&quot;font-size: 19px&quot;&gt;&lt;font color=&quot;#FF8000&quot;&gt;&lt;strong style=&quot;font-size: 19px&quot;&gt;Configuration management tool&lt;/strong&gt; See &lt;strong style=&quot;font-size: 19px&quot;&gt;Tool&lt;/strong&gt;.&lt;/font&gt;&lt;/li&gt;&lt;font color=&quot;#FF8000&quot;&gt;&lt;br style=&quot;font-size: 19px&quot;&gt;&lt;/font&gt;&lt;li style=&quot;font-size: 19px&quot;&gt;&lt;font color=&quot;#FF8000&quot;&gt;&lt;strong style=&quot;font-size: 19px&quot;&gt;Configuration management plugin&lt;/strong&gt; A custom tool.&lt;/font&gt;&lt;/li&gt;" style="text;whiteSpace=wrap;html=1;fontSize=19;fontColor=#000000;" vertex="1" parent="1">
          <mxGeometry x="967" y="571" width="540" height="300" as="geometry" />
        </mxCell>
      </root>
    </mxGraphModel>
  </diagram>
  <diagram id="dcIqWs6Cxl0EQCYYd7Wc" name="Page-4">
    <mxGraphModel dx="1235" dy="621" grid="0" gridSize="10" guides="1" tooltips="1" connect="1" arrows="1" fold="1" page="1" pageScale="1" pageWidth="850" pageHeight="1100" math="0" shadow="0">
      <root>
        <mxCell id="0" />
        <mxCell id="1" parent="0" />
        <mxCell id="WKE3xeErVcGo7zEy2SZM-1" value="" style="shape=image;verticalLabelPosition=bottom;labelBackgroundColor=default;verticalAlign=top;aspect=fixed;imageAspect=0;image=https://d33wubrfki0l68.cloudfront.net/d0c94836ab5b896f29728f3c4798054539303799/9f948/logo/logo.png;" vertex="1" parent="1">
          <mxGeometry x="39" y="175.5" width="180.51" height="109" as="geometry" />
        </mxCell>
        <mxCell id="WKE3xeErVcGo7zEy2SZM-2" value="" style="shape=image;html=1;verticalAlign=top;verticalLabelPosition=bottom;labelBackgroundColor=#ffffff;imageAspect=0;aspect=fixed;image=https://cdn3.iconfinder.com/data/icons/user-interface-169/32/plus-128.png" vertex="1" parent="1">
          <mxGeometry x="232" y="175.5" width="100" height="100" as="geometry" />
        </mxCell>
        <mxCell id="WKE3xeErVcGo7zEy2SZM-3" value="" style="shape=image;verticalLabelPosition=bottom;labelBackgroundColor=default;verticalAlign=top;aspect=fixed;imageAspect=0;image=https://magmax.org/images/argocd.jpg;" vertex="1" parent="1">
          <mxGeometry x="338" y="145" width="174" height="174" as="geometry" />
        </mxCell>
        <mxCell id="WKE3xeErVcGo7zEy2SZM-4" value="" style="shape=image;html=1;verticalAlign=top;verticalLabelPosition=bottom;labelBackgroundColor=#ffffff;imageAspect=0;aspect=fixed;image=https://cdn3.iconfinder.com/data/icons/user-interface-169/32/plus-128.png" vertex="1" parent="1">
          <mxGeometry x="507" y="180" width="100" height="100" as="geometry" />
        </mxCell>
        <mxCell id="WKE3xeErVcGo7zEy2SZM-5" value="" style="shape=image;verticalLabelPosition=bottom;labelBackgroundColor=default;verticalAlign=top;aspect=fixed;imageAspect=0;image=data:image/png,iVBORw0KGgoAAAANSUhEUgAAAOEAAADhCAMAAAAJbSJIAAAAwFBMVEX///8Ol0kAlEP//v8Olkpwt4VxtoYAjSwAjij9//92tYV1tYf+//3+//wOl0cPlksAkTsAjTMAiy4AlkIAkDIAjzgAjzkAiykAlD3b7uOz2b3y9/AOmEILmUdPrGwAkjfA3shdsXoonE7r9+3V7d2/48+h0bAbn0qv2rwwnlwpoFaVyKM+p108pWZwvYb3/fZcsniTyqhPrGeAwZba7t3N49Wj0KuBvJNruHbH5Mqf0rNhrHLV6dS63sNirHFOqWsf94KUAAANk0lEQVR4nO1dC3fauBLWixhvbcnGJrziGAKhCaQhWZp0u7e5+f//amdM0zywgwX4IQ5fe9qe02DrQ5rRzGg0Q8gRRxxxxBFHHFEqXM4JsR3C8Y+DhOOu/rZdx652JMXBnVxOcPp41QMpBnz6tdOOw87XR6Ba9WD2C9fBOet7nqQI6XlXOI0HtFKR4OS6veIHENKfTQ5sqQ5GVhSpF4bqTAhrNKh6UPvEvMWEUtELwwj+qQJrXvWwdgd3bQ7C9hR0laDr8KIhrGDHMXi1utxxSO/mVQA/QLa/9eB7MFjjwNAXtx1FBU2bQlyurNlYmK1TpxaTEpdoKkX4H9H1p1UPcgs4Nuc2SNcw8DIm7w2UF1wSXKsmyaNNOJhm43NLvurPTyD95zFoHG6QncNhOpxlhypYh5voCQFSylpLh5jkbsBYpyGTNBIsB0MqIilZu1/1qHMDhJD8nHlZO0Qm4tkvlEaX1913dNBEawltgpIGrbsxKpz67x5zK1Cb5W+NoVIUxBHUlF1zjdOPQQDxlyaUlFJIFvZJXefQTmIv32dtXWofprI9+07QWq2azzoc2AIXI1977tYoMqumhhwYJPeWiDbbMBugIhGE9fSrhsyDjW1nhrgIZBwMq6bzClydgN6NvzO5t/DRr3LcOnhWtos+0kmLZvgP24KFII68FnFVjiZaF62vvUICx39rEq26pHHCb78UlZAqpj8r5IXWlZP4SK08HtJ2LKX/9xhf5VRhq/LEfnSWTaZvoeUFLgz0q6oJkaMLQa7CQIjCCNIIOK4MuSp0KhB8uGhHYIHubMZkQyU+ShIgL5mdDTpuvAcTLS/Qr7LhrcnCKQMoFUufFaZhPkKBsTrHZWOXZ5E/BQE6dCUBdJkIgqdENMrB9+u2UPKsLIJUgr0rotPrHspHoUCNZpNFo1WaAL4DazVs5Fjg1sFdePh9k1XCj6Lv2LwnRVtyw66nH6HYF9SZitmwUH7jbyFsf6VpmI+QSioRol+1b3AQQJcTp+EHlc3fK1hrCTuja/M97hy262IYO65MAD+ANaeY/rBHjYOPeqCnUop9e4HbIRLJ8fFeNc74zsInUxVUzS5BJIQ/Gu+BF5hJaAwSe+nXg9kbSHa6RB8ORrjDXHKeHJP0Yy+oTH9mQVHZ7fYxWrVLLMfGk9zJrK3knkMUe0AgpVTtC/SrdtOpg1ErQD+takJrgJ0xAtVngV+1JUOHYJhwbtVlh8hC0Jqv0sq0gbk+T8HmM9yqoaK4+0S2OZGDqR/5hYYo9gQpqD/aYgphO73ugoKpP0O0QrxrbXawsEc5cmFqAknZuaa+AYLDsDovSRcwFe2hlhHngJaZsd1PykqDEHJGtHZ+2Of9qPZq9A8UZh1PdCYRpvDR03xLJFSSAwVyv9PqFhLTHPQD6exRi6FDfuia2shMYgR1R4ZUqQhYaj+DLTXn8ETXlomUCgLW9diO8hsEXc9jVDtUyRpFM2RWe/R4New//rgJ21uberId/NUf9qfn2u4aO9H0iPUYStp+Hr5++HJkwUzqLjRBhTd7eQqfW3ocYQ71dkQthkqGw/epTIsluCSaq1UJ6/bl8+B4D2YCd4F6MAyC8cpU/w0Xfg1umNYkgqZqz9+cEzoOuWYa2QHFMgwH72dwFee71UsAE+yfN0/BC3xOrLHSi2OoaBT2Ux4OYr88jfK7zoq212ySYTv/Si+OoRRilnZyiRdF7lj+fU12U3L2L4IaMKRnbEpSsl5tG+zEGw19GI7X7cpptwYMpbR6aSmhLp6Eu/kZiijl1KwX5rbeimMohJW50zqk15I5LXh2l/IAbtVgtxC0k/kQ2NV+tqJ8GZnsr7Sk0k4tGFrZTwEFdJ9zoQHDFNSdIceA5CifHwYjNHEOCdo33wKa4+5M+hw28xKskKHNFwETYmPujbkMYascWzlOxs1liHG7n9Zmv99ghohpSOkGP8FshjZpdDflEJvNECh+Y4fO0D3bcMpqOEPAeIOJaT5D8qvz6Z5oPkNOpv5hMwSKt59ZqAfAEPD3J+G3w2DIz7KNt8NgSAbNzB3jMBhyMmkdBkNO3DGx19/ocvJv1smrYQxt8r9JSgAOi1+dsChV3ZjFEBz7L/EiNafeJs8sVRbNYsgJMExJcXFsFxximhpENYsh4AvzRoSnJCrbZBDSFFk0kKGK79Ni4bZDflkpx6cGMpSy9UTW8+kx6+WquX5nyjyGgYpk6/v6W5PE6mW8PkLjGCaf7y5gVaZlRj4HInoffzOToTq7xkOotZMbmMWIKflOp5rJUAp2R7ibdkA8/mjbmMlQqOh0nnJL2QbzbdJ8XwfMTIYI6ynjzVct9TaGai5DamVdNVvGbwsxmMtQULBQUwBL9/ltDNVkhmyW9gMOWKiRPIQ5pMkRffqFiEH4arwZzZDGPzLe8r3zZ8swmyG1rlJf4pIr60AY0ma6QuVk+RJDNZ2hCBc8XRZBoUrzGYLCZBcpnhTC/rr6ScMZAsXuc0aZuYF/AHMosUhpvEx9kUt+tcxnuEKzT+yUSro26bcjpcxnKBKFuu5noAJankYHMIfyTMnTwfocgn+MqbbCfIYChJFdrPv7ro29IS6Y+QyTn42fU0XR4YsYGKbsl6YxlAoV6npkyrFJr/Ml7TGmMVSBAgt1fRIx673//7T90jSGGEG0JusnNrbtuOQhzaozjWHy8+EAq9LnvF1uJEMZAT+e856ZiQxpQJ+xpdXhMgSnHhRq3kqPJjJEhNOk9E2OlWoqQ9XBi9d56ueZypDKEEsgHTBDrLwKBvcBr1Ic0Plhr1KaKNQcMJlhVgz1cBgK2nw4bIaA5mBjgSfDGcrI3mTbGM6QBlkx1INhKOKTDcOoLUOek6Gwpphw8wnDmt6wdHLOIRg31sOnfkZtGeas/iIiFTTH2bWdeT0YilQ5bOT8vGJnbu3n0O+RD71EYcgXuYcW/E0yWx/2MhPfy2QYsT4sy3fzYJNF/qGpuJHZEaBfh6oRoC3OP7p6LunnLxUmafiYNYrz/DVkCpxDKazeh/NdTvIXe8MyQv4wfRATP3/dsEIr8MhrnEPXXa00rFt7v54h+ylLC/vJcecldoN/o2hGGoWYiq0x5N0mh2TJ6FzXJQ+WXkWzM9VpkETfrOTZXoWMn5lGD75iGcrTBnkprw1DHPqaVekUFZ4YJp+1fz+DkMHM02kiVTBDwS7+tIJJmkPoVTKT+DuWV28UKp9bkUalL12GtpN7x/4zSGs2vRwPJv1/tu7OIj3rZv40GQ/Gl9Nz7frFehXpQDNq19yDAca+73tsh8r0QjKvDQ+Jmf4ztBnms5zfQMqkmhCuqx3qJsoIZU9J/T6K7IcOQ1ilc/0y8yux2aYy57uHvPyhCTbXaXwJ/swwrq5RhzbwC2lf6jBEd8bLW8KqHhCxVtlyF2/Px/XoZZELQnSnWr3ZOAcL7MIcgoCIpN4++hRjn5pQ7xobJVMab9HOwybjIFBGVLxW8TYEkztnX6z6V52XijVTk402MwQXhvS+hVUz2ARpfett3wIaPvgUe1Gy2KtmsgaRZOZ67GlbdggX3bV7n6n68UsYqsC6J7mzj9IAPi32E2/kj62XB1SBzcYC3eUdegVhCAzLkPauy2vImR/tWS8pN5w3v+pzPAVM4K3WemweSkWqG+wkgClYWtjzqR4MZZD0Jd1jVzLHBn9qMMof5S0YQdKSbJ9t17BtNKz2yYVehe6icDpb9bEqoidpP4ado8AmzhsgRYQt1/MkcWwJTtylRWVpfYDXEClmLYtsQ2qjPf7sawep9gZpgQC6BVJcRWwfqG6Hln2hSx9I6nWGvWMaMuwrU9rWodAHlMx6LK+NvP1XC0S+PI2jFGWdWzf7KLUAoF9VnsaRDHvkOm7ScLIMOPiiYVCaOIpYDtHEtlMqpBUH93dzxCLbyyY3MyUNmvPyeL0Cv87BbUcUaazilyeU1dic4VcEHLzJQ77PrAKtcSTYvkhSPcrSoe8Ycu5go1kvLlCnsri/Kp5VwRy+Yt5hWDd/3zzhiUEnV6p0weBJw+ekn+5+l6tknbtBIf6DJlwMpj989cRWZ2KfEIzBR7LL2v8+A09SJ8jVnhuvs/hq1WmyPlgsm5vKrmvway7z3TgpExz9Krm776giJf3z8Z/Mk/oAhzOMvN2jjiKkQ0Jy3vwqE66DuW33O7eZZ/49xmCcfLf3ygZ86/ZJB0/k9PWqFLjjiObJotrdfQPwe+/d+Nucc0jsBh/e9JJMkNoCT+Rcmzx1txBHQSMvHsICdeumYd4CV2mi4+dbRKuCNvpIIM51lL+PsMGQazG0VPO1hMXTSYyimQROJtdtmjcDVgg00WqtYT5gtVv3cxtyHvpItdYwH+GCNKI0LZt5dkcWLlHB8DprmEwMzlufRVWxMiSzRoOqh7k9wMr5eRFnUxRKdC8eyoyf7R049n+t7KgjC1Paq5oEjFbBFrnMSGkGH8nBVE+T5/A3eudgyIlXz0pRSVXgP2fV3zURw4jJ1y6PUonIo0NQoHXzkLYFhnLuw+DVWA0CzDRwiBEWWh64HKzVRaPzIo7MQh8JLdBDYYjAPMDzTtvzvLhzd0gC+AcObh32cDrtP7ikdhGKvcC23wTPPru/bSpQ5OxE8jhmolVw0nLEEUccccQRRxww/gO6Xg1Al8tOFAAAAABJRU5ErkJggg==;" vertex="1" parent="1">
          <mxGeometry x="610" y="151" width="154" height="154" as="geometry" />
        </mxCell>
        <mxCell id="WKE3xeErVcGo7zEy2SZM-6" value="&lt;b&gt;Nginx Ingress Controller&lt;/b&gt;" style="text;html=1;strokeColor=none;fillColor=none;align=center;verticalAlign=middle;whiteSpace=wrap;rounded=0;" vertex="1" parent="1">
          <mxGeometry x="618" y="302" width="146" height="30" as="geometry" />
        </mxCell>
      </root>
    </mxGraphModel>
  </diagram>
</mxfile>
